<svg width="24" height="24" viewBox="0 0 24 24" fill="none" xmlns="http://www.w3.org/2000/svg">
<path d="M23.25 12.25C23.25 11.325 23.1734 10.65 23.0077 9.95001H12.2296V14.125H18.5561C18.4286 15.1625 17.7398 16.725 16.2092 17.7749L16.1877 17.9147L19.5955 20.5019L19.8316 20.525C22 18.5625 23.25 15.675 23.25 12.25Z" fill="#4285F4"/>
<path d="M12.2296 23.25C15.329 23.25 17.931 22.25 19.8316 20.525L16.2092 17.7749C15.2398 18.4374 13.9387 18.8999 12.2296 18.8999C9.1939 18.8999 6.61739 16.9375 5.69893 14.225L5.56431 14.2362L2.0208 16.9237L1.97446 17.05C3.8622 20.7249 7.73976 23.25 12.2296 23.25Z" fill="#34A853"/>
<path d="M5.69893 14.225C5.45659 13.525 5.31634 12.775 5.31634 12C5.31634 11.225 5.45659 10.475 5.68618 9.77499L5.67976 9.62591L2.09185 6.89523L1.97446 6.94995C1.19643 8.47497 0.75 10.1875 0.75 12C0.75 13.8125 1.19643 15.5249 1.97446 17.05L5.69893 14.225Z" fill="#FBBC05"/>
<path d="M12.2296 5.09997C14.3852 5.09997 15.8392 6.01247 16.6683 6.77502L19.9081 3.675C17.9184 1.8625 15.329 0.75 12.2296 0.75C7.73976 0.75 3.8622 3.27498 1.97446 6.94995L5.68618 9.77499C6.61739 7.0625 9.1939 5.09997 12.2296 5.09997Z" fill="#EB4335"/>
</svg>
