<svg width="32" height="32" viewBox="0 0 32 32" fill="none" xmlns="http://www.w3.org/2000/svg">
<path d="M28 30H4C3.46974 29.9994 2.96135 29.7886 2.5864 29.4136C2.21145 29.0386 2.00056 28.5303 2 28V22C2.00056 21.4697 2.21145 20.9614 2.5864 20.5864C2.96135 20.2114 3.46974 20.0006 4 20H28C28.5303 20.0006 29.0386 20.2114 29.4136 20.5864C29.7886 20.9614 29.9994 21.4697 30 22V28C29.9994 28.5303 29.7886 29.0386 29.4136 29.4136C29.0386 29.7886 28.5303 29.9994 28 30ZM4 22V28H28V22H4Z" fill="#68737D"/>
<path d="M7 26C7.55228 26 8 25.5523 8 25C8 24.4477 7.55228 24 7 24C6.44772 24 6 24.4477 6 25C6 25.5523 6.44772 26 7 26Z" fill="#68737D"/>
<path d="M19 11.586L17 9.586V6H15V10.414L17.586 13L19 11.586Z" fill="#68737D"/>
<path d="M16 18C14.4178 18 12.871 17.5308 11.5554 16.6518C10.2398 15.7727 9.21447 14.5233 8.60897 13.0615C8.00347 11.5997 7.84504 9.99113 8.15372 8.43928C8.4624 6.88743 9.22433 5.46197 10.3431 4.34315C11.462 3.22433 12.8874 2.4624 14.4393 2.15372C15.9911 1.84504 17.5997 2.00347 19.0615 2.60897C20.5233 3.21447 21.7727 4.23985 22.6518 5.55544C23.5308 6.87103 24 8.41775 24 10C23.9976 12.121 23.1539 14.1544 21.6542 15.6542C20.1544 17.1539 18.121 17.9976 16 18ZM16 4C14.8133 4 13.6533 4.3519 12.6666 5.01119C11.6799 5.67047 10.9109 6.60755 10.4567 7.7039C10.0026 8.80026 9.88378 10.0067 10.1153 11.1705C10.3468 12.3344 10.9182 13.4035 11.7574 14.2426C12.5965 15.0818 13.6656 15.6532 14.8295 15.8847C15.9933 16.1162 17.1997 15.9974 18.2961 15.5433C19.3925 15.0892 20.3295 14.3201 20.9888 13.3334C21.6481 12.3467 22 11.1867 22 10C21.9982 8.40925 21.3655 6.88416 20.2407 5.75932C19.1159 4.63449 17.5908 4.00178 16 4Z" fill="#68737D"/>
</svg>
