<svg width="32" height="32" viewBox="0 0 32 32" fill="none" xmlns="http://www.w3.org/2000/svg">
<g clip-path="url(#clip0_2512_1485)">
<path d="M10.6667 13.3333H6.66667C5.19333 13.3333 4 12.14 4 10.6667V6.66667C4 5.19333 5.19333 4 6.66667 4H10.6667C12.14 4 13.3333 5.19333 13.3333 6.66667V10.6667C13.3333 12.14 12.14 13.3333 10.6667 13.3333ZM25.3333 28.3333H21.3333C19.86 28.3333 18.6667 27.14 18.6667 25.6667V21.6667C18.6667 20.1933 19.86 19 21.3333 19H25.3333C26.8067 19 28 20.1933 28 21.6667V25.6667C28 27.14 26.8067 28.3333 25.3333 28.3333ZM10.6667 28H6.66667C5.19333 28 4 26.8067 4 25.3333V21.3333C4 19.86 5.19333 18.6667 6.66667 18.6667H10.6667C12.14 18.6667 13.3333 19.86 13.3333 21.3333V25.3333C13.3333 26.8067 12.14 28 10.6667 28Z" stroke="#68737D" stroke-width="2" stroke-linecap="round" stroke-linejoin="round"/>
<path d="M28.9823 7.59329C28.9823 8.0504 28.9823 8.50552 28.9823 8.96464C28.9823 9.42376 28.9823 9.87888 28.9958 10.336C29.0201 10.7166 28.9385 11.0967 28.7583 11.4423C28.5717 11.775 28.2517 12.0328 27.8619 12.1645C27.426 12.3215 27.0305 12.3825 26.6372 12.3095C26.244 12.2365 25.8529 12.0304 25.4215 11.6543C24.6581 10.9842 23.897 10.3103 23.1381 9.63282C22.3791 8.95531 21.6213 8.27946 20.8647 7.60529C20.746 7.48467 20.6126 7.37629 20.4669 7.2822C20.3878 7.23707 20.2976 7.20984 20.2041 7.20287C20.1106 7.1959 20.0166 7.2094 19.9302 7.24219C19.8331 7.26919 19.7448 7.31691 19.6729 7.38122C19.6011 7.44553 19.5479 7.5245 19.5179 7.61129C19.4691 7.78274 19.4491 7.95972 19.4585 8.13643C19.4585 8.88329 19.4611 9.63115 19.4663 10.38C19.4663 11.1282 19.4663 11.8804 19.4518 12.6246C19.4429 12.812 19.4792 12.9989 19.5582 13.1727C19.6341 13.3341 19.7714 13.4662 19.9459 13.5458C20.0345 13.5879 20.1328 13.611 20.2331 13.6134C20.3334 13.6159 20.433 13.5975 20.524 13.5598C20.7121 13.4826 20.8827 13.3751 21.0271 13.2428C21.3745 12.9413 21.7199 12.6379 22.0635 12.3325C22.4072 12.0271 22.7452 11.7184 23.0776 11.4063C23.142 11.3389 23.2207 11.2836 23.3091 11.2434C23.3976 11.2032 23.494 11.179 23.593 11.1722C23.7797 11.173 23.9614 11.2258 24.1129 11.3233C24.2563 11.4073 24.3224 11.5883 24.3179 11.7794C24.3188 11.9705 24.2411 12.1552 24.0994 12.2985C23.6871 12.6706 23.2781 13.0477 22.8669 13.4198C22.4557 13.7919 22.0344 14.16 21.6019 14.5131C21.2843 14.7823 20.8765 14.9509 20.4411 14.9932C20.0033 15.0234 19.5642 14.9524 19.1661 14.7872C18.8017 14.6591 18.4916 14.432 18.2798 14.138C18.0814 13.8321 17.9849 13.4819 18.0019 13.1287C18.012 12.2065 18.0109 11.2842 18.0098 10.361C18.0086 9.43777 18.0098 8.51653 18.0098 7.59329C18.0009 7.22647 18.0864 6.86273 18.2596 6.53001C18.4426 6.20218 18.7594 5.94945 19.1448 5.82382C19.5444 5.67706 19.9834 5.63811 20.4075 5.71179C20.8446 5.80335 21.2408 6.00999 21.5448 6.30495C22.3134 7.00513 23.0888 7.70065 23.8708 8.39149C24.6529 9.08234 25.4328 9.77452 26.2103 10.468C26.3163 10.5715 26.4382 10.6611 26.5723 10.7341C26.6396 10.7688 26.7146 10.7898 26.7921 10.7957C26.8696 10.8015 26.9475 10.7921 27.0204 10.7681C27.161 10.7306 27.2887 10.6617 27.3913 10.5681C27.4956 10.4563 27.5478 10.3131 27.537 10.168C27.5258 9.32474 27.5258 8.48552 27.5258 7.6463C27.5258 6.80708 27.5258 5.96686 27.5258 5.12764C27.5328 5.00086 27.5103 4.87415 27.4596 4.75554C27.4277 4.69537 27.3827 4.64143 27.3273 4.5968C27.272 4.55217 27.2073 4.51774 27.137 4.49548C27.0003 4.43777 26.8511 4.40771 26.7 4.40745C26.5444 4.41713 26.3962 4.47033 26.2765 4.55949C25.8532 4.85626 25.4547 5.1802 25.0843 5.52875C24.7089 5.87084 24.3425 6.22193 23.9504 6.55001C23.8045 6.69051 23.6107 6.78405 23.3991 6.81608C23.3061 6.82071 23.213 6.80627 23.1272 6.77384C23.0414 6.74142 22.965 6.69189 22.9039 6.62903C22.8317 6.56634 22.7751 6.49069 22.7381 6.40706C22.701 6.32344 22.6842 6.23375 22.6888 6.14391C22.7035 5.95025 22.799 5.76857 22.9565 5.63477C23.3532 5.28135 23.7491 4.92792 24.1442 4.5745C24.5394 4.22107 24.9371 3.87031 25.3375 3.52222C25.5884 3.31396 25.8905 3.16127 26.2197 3.07648C26.5488 2.99168 26.8956 2.97717 27.2322 3.0341C27.57 3.07659 27.892 3.18921 28.1722 3.36293C28.4524 3.53665 28.6831 3.76661 28.8456 4.03436C28.8955 4.12054 28.9331 4.21194 28.9577 4.30643C28.9816 4.40195 28.9929 4.49964 28.9913 4.5975C28.9868 5.09563 28.9868 5.59576 28.9913 6.09789C28.9958 6.60003 28.9928 7.09849 28.9823 7.59329Z" fill="#68737D"/>
</g>
<defs>
<clipPath id="clip0_2512_1485">
<rect width="32" height="32" fill="white"/>
</clipPath>
</defs>
</svg>
