<svg width="24" height="24" viewBox="0 0 24 24" fill="none" xmlns="http://www.w3.org/2000/svg">
<path d="M20.667 20.125H3.33301M20.667 14.708H3.33301M20.667 9.292H16.334M20.667 3.875H16.334M9.29201 6.042H12C12.299 6.042 12.542 6.285 12.542 6.584V8.75C12.542 9.049 12.299 9.292 12 9.292H9.83301C9.53401 9.292 9.29101 9.049 9.29101 8.75L9.29201 6.042ZM9.29201 6.042C9.29201 3.875 9.69801 3.515 10.917 2.792M3.33301 6.042H6.04101C6.34001 6.042 6.58301 6.285 6.58301 6.584V8.75C6.58301 9.049 6.34001 9.292 6.04101 9.292H3.87501C3.57601 9.292 3.33301 9.049 3.33301 8.75V6.042ZM3.33301 6.042C3.33301 3.875 3.73901 3.515 4.95801 2.792" stroke="#323232" stroke-width="1.5" stroke-linecap="round" stroke-linejoin="round"/>
</svg>
