<svg width="24" height="24" viewBox="0 0 24 24" fill="none" xmlns="http://www.w3.org/2000/svg">
<path d="M9 9.75719C8.039 9.43819 7.054 9.23519 6 9.11719M15 13.7572C15.961 13.4382 16.946 13.2352 18 13.1172L15 13.7572ZM6 13.1182C7.054 13.2352 8.039 13.4392 9 13.7582L6 13.1182ZM18 9.11819C16.946 9.23519 15.961 9.43919 15 9.75819L18 9.11819Z" stroke="#68737D" stroke-width="1.5" stroke-linecap="round" stroke-linejoin="round"/>
<path d="M12 6.12954V19.9995M12 6.13054C9.406 4.67754 7.088 4.09954 4.017 4.00054C3.459 3.98154 3 4.44154 3 5.00054V16.8535C3 17.3945 3.433 17.8435 3.974 17.8515C7.066 17.8975 9.394 18.4675 12 19.9995C14.606 18.4675 16.934 17.8975 20.026 17.8515C20.567 17.8435 21 17.3945 21 16.8525V4.99954C21 4.44054 20.541 3.98154 19.983 3.99954C16.912 4.09954 14.594 4.67754 12 6.13054V6.13054Z" stroke="#68737D" stroke-width="1.5" stroke-linecap="round" stroke-linejoin="round"/>
</svg>
