<svg width="24" height="24" viewBox="0 0 24 24" fill="none" xmlns="http://www.w3.org/2000/svg">
<path d="M14.5858 4.58579L15.7071 5.70711C15.8946 5.89464 16.149 6 16.4142 6H19C19.5304 6 20.0391 6.21071 20.4142 6.58579C20.7893 6.96086 21 7.46957 21 8V17C21 17.5304 20.7893 18.0391 20.4142 18.4142C20.0391 18.7893 19.5304 19 19 19H5C4.46957 19 3.96086 18.7893 3.58579 18.4142C3.21071 18.0391 3 17.5304 3 17V8C3 7.46957 3.21071 6.96086 3.58579 6.58579C3.96086 6.21071 4.46957 6 5 6H7.58579C7.851 6 8.10535 5.89464 8.29289 5.70711L9.41421 4.58579C9.59993 4.40007 9.82041 4.25275 10.0631 4.15224C10.3057 4.05173 10.5658 4 10.8284 4H13.1716C13.4342 4 13.6943 4.05173 13.9369 4.15224C14.1796 4.25275 14.4001 4.40007 14.5858 4.58579Z" stroke="#68737D" stroke-width="1.5" stroke-linecap="round" stroke-linejoin="round"/>
<path d="M12 16C14.2091 16 16 14.2091 16 12C16 9.79086 14.2091 8 12 8C9.79086 8 8 9.79086 8 12C8 14.2091 9.79086 16 12 16Z" stroke="#68737D" stroke-width="1.5" stroke-linecap="round" stroke-linejoin="round"/>
<path d="M18.0501 9.00007C18.05 9.00995 18.0471 9.01961 18.0416 9.02782C18.0361 9.03603 18.0283 9.04243 18.0192 9.04621C18.01 9.04998 18 9.05096 17.9903 9.04903C17.9806 9.0471 17.9717 9.04234 17.9647 9.03535C17.9577 9.02836 17.953 9.01946 17.951 9.00976C17.9491 9.00007 17.9501 8.99002 17.9539 8.98089C17.9576 8.97176 17.964 8.96395 17.9722 8.95845C17.9805 8.95295 17.9901 8.95001 18 8.95C18.0066 8.94999 18.0131 8.95128 18.0192 8.95379C18.0252 8.95631 18.0308 8.95999 18.0354 8.96465C18.0401 8.9693 18.0438 8.97482 18.0463 8.9809C18.0488 8.98698 18.0501 8.99349 18.0501 9.00007" stroke="#68737D" stroke-width="1.5" stroke-linecap="round" stroke-linejoin="round"/>
</svg>
