<svg width="16" height="16" viewBox="0 0 16 16" fill="none" xmlns="http://www.w3.org/2000/svg">
<path d="M12.2426 3.75736C14.5858 6.10051 14.5858 9.89949 12.2426 12.2426C9.89948 14.5858 6.10049 14.5858 3.75736 12.2426C1.41421 9.89948 1.41421 6.10049 3.75736 3.75736C6.10051 1.41421 9.89949 1.41421 12.2426 3.75736" stroke="#68737D" stroke-linecap="round" stroke-linejoin="round"/>
<path d="M7.99979 5.2731H13.3465M9.92833 6.07125C10.9934 7.13634 10.9934 8.86319 9.92833 9.92829C8.86324 10.9934 7.13639 10.9934 6.07129 9.92829C5.00621 8.8632 5.00621 7.13635 6.07129 6.07125C7.13638 5.00617 8.86323 5.00617 9.92833 6.07125V6.07125ZM10.3625 9.3631L7.71113 13.9998L10.3625 9.3631ZM2.95312 4.75977L5.63979 9.36643L2.95312 4.75977Z" stroke="#68737D" stroke-linecap="round" stroke-linejoin="round"/>
</svg>
