<svg width="32" height="32" viewBox="0 0 32 32" fill="none" xmlns="http://www.w3.org/2000/svg">
<path d="M10 14C11.1046 14 12 13.1046 12 12C12 10.8954 11.1046 10 10 10C8.89543 10 8 10.8954 8 12C8 13.1046 8.89543 14 10 14Z" fill="#68737D"/>
<path d="M16 11C17.1046 11 18 10.1046 18 9C18 7.89543 17.1046 7 16 7C14.8954 7 14 7.89543 14 9C14 10.1046 14.8954 11 16 11Z" fill="#68737D"/>
<path d="M22 14C23.1046 14 24 13.1046 24 12C24 10.8954 23.1046 10 22 10C20.8954 10 20 10.8954 20 12C20 13.1046 20.8954 14 22 14Z" fill="#68737D"/>
<path d="M23 20C24.1046 20 25 19.1046 25 18C25 16.8954 24.1046 16 23 16C21.8954 16 21 16.8954 21 18C21 19.1046 21.8954 20 23 20Z" fill="#68737D"/>
<path d="M19 25C20.1046 25 21 24.1046 21 23C21 21.8954 20.1046 21 19 21C17.8954 21 17 21.8954 17 23C17 24.1046 17.8954 25 19 25Z" fill="#68737D"/>
<path d="M16.54 1.99968C14.6566 1.92698 12.7778 2.23534 11.0165 2.90628C9.25507 3.57722 7.64731 4.59693 6.28955 5.90426C4.93179 7.2116 3.852 8.77964 3.11491 10.5144C2.37781 12.2491 1.9986 14.1148 2 15.9997C1.99995 16.741 2.1709 17.4723 2.49955 18.1368C2.8282 18.8013 3.30569 19.3811 3.8949 19.8309C4.4841 20.2808 5.16914 20.5887 5.89674 20.7307C6.62433 20.8727 7.37488 20.845 8.09 20.6497L9.21 20.3397C9.65555 20.2181 10.1232 20.2009 10.5764 20.2897C11.0296 20.3784 11.4563 20.5706 11.8231 20.8513C12.1898 21.1319 12.4869 21.4935 12.691 21.9077C12.8952 22.322 13.0009 22.7778 13 23.2397V26.9997C13 27.7953 13.3161 28.5584 13.8787 29.121C14.4413 29.6836 15.2044 29.9997 16 29.9997C17.8848 30.0011 19.7506 29.6219 21.4853 28.8848C23.22 28.1477 24.7881 27.0679 26.0954 25.7101C27.4028 24.3524 28.4225 22.7446 29.0934 20.9832C29.7643 19.2218 30.0727 17.3431 30 15.4597C29.8549 11.9364 28.3902 8.59641 25.8968 6.10293C23.4033 3.60945 20.0633 2.14477 16.54 1.99968ZM24.65 24.3097C23.5334 25.4787 22.1909 26.4086 20.7039 27.043C19.217 27.6773 17.6166 28.0028 16 27.9997C15.7348 27.9997 15.4804 27.8943 15.2929 27.7068C15.1054 27.5192 15 27.2649 15 26.9997V23.2397C15 21.9136 14.4732 20.6418 13.5355 19.7041C12.5979 18.7665 11.3261 18.2397 10 18.2397C9.55065 18.2405 9.1034 18.301 8.67 18.4197L7.55 18.7297C7.13168 18.8418 6.69316 18.856 6.26844 18.7713C5.84373 18.6866 5.44422 18.5052 5.10092 18.2412C4.75761 17.9772 4.47972 17.6377 4.2888 17.249C4.09788 16.8602 3.99906 16.4328 4 15.9997C3.99876 14.3835 4.32402 12.7837 4.95625 11.2963C5.58848 9.80885 6.51467 8.46448 7.67923 7.3438C8.8438 6.22313 10.2227 5.34926 11.7333 4.77461C13.2439 4.19996 14.855 3.93637 16.47 3.99968C19.4772 4.1563 22.3198 5.42134 24.4491 7.55063C26.5783 9.67992 27.8434 12.5225 28 15.5297C28.0688 17.1456 27.8072 18.7587 27.2312 20.2701C26.6552 21.7814 25.7769 23.1594 24.65 24.3197V24.3097Z" fill="#68737D"/>
</svg>
