<svg width="24" height="24" viewBox="0 0 24 24" fill="none" xmlns="http://www.w3.org/2000/svg">
<path d="M3.81914 6.33633L4.53633 6.72656L4.24805 6.57187L4.52578 6.74766L4.53633 6.73008L4.24805 6.57539L4.52578 6.75117C4.53984 6.73359 4.85625 6.22734 5.93906 5.70352C7.02539 5.17969 8.8957 4.64531 11.9965 4.64531C15.3082 4.64531 17.2137 5.25703 18.2613 5.80898C18.7852 6.08672 19.1016 6.35039 19.2773 6.52617C19.3652 6.61406 19.418 6.68086 19.4461 6.71953L19.4672 6.75117L19.7449 6.57539L19.4566 6.73008L19.4672 6.74766L19.7449 6.57187L19.4566 6.72656L20.1773 6.33633H19.3582V17.6637H20.1773L19.4637 17.2734L19.752 17.4281L19.4742 17.2523L19.4637 17.2699L19.752 17.4246L19.4742 17.2488C19.4602 17.2664 19.1437 17.7727 18.0609 18.2965C16.9746 18.8203 15.1043 19.3547 12.0035 19.3547C8.6918 19.3547 6.78633 18.743 5.73867 18.191C5.21484 17.9133 4.89844 17.6496 4.72266 17.4738C4.63477 17.3859 4.58203 17.3191 4.55391 17.2805L4.53281 17.2488L4.25508 17.4246L4.54336 17.2699L4.53281 17.2523L4.25508 17.4281L4.54336 17.2734L3.82266 17.6637H4.6418V6.33633H3.81914L4.53633 6.72656L3.81914 6.33633H3V17.8711L3.09844 18.0539C3.16523 18.1805 3.63281 18.9434 4.96875 19.6465C6.30469 20.3531 8.49141 21 12 21C15.5086 21 17.6918 20.3531 19.0312 19.6465C20.3672 18.9434 20.8383 18.1805 20.9016 18.0539L21 17.8711V6.12891L20.9016 5.94609C20.8348 5.81953 20.3672 5.05664 19.0312 4.35352C17.6918 3.64687 15.5086 3 12 3C8.49141 3 6.3082 3.64687 4.96875 4.35352C3.63281 5.05664 3.16523 5.81953 3.09844 5.94609L3 6.12891V6.33633H3.81914ZM3.2707 13.4273C3.36211 13.5152 6.29063 16.0922 12 16.0922C17.7094 16.0922 20.6344 13.5152 20.7293 13.4273L19.6359 12.2109L19.9559 12.566L19.6395 12.2074L19.6359 12.2109L19.9559 12.566L19.6395 12.2074C19.6395 12.2074 19.6043 12.2391 19.527 12.2988C18.975 12.7242 16.4859 14.4504 12.0035 14.4539C9.39844 14.4539 7.47539 13.8703 6.20273 13.2973C5.56641 13.0125 5.09531 12.7277 4.78945 12.5203C4.63477 12.4184 4.52578 12.334 4.45547 12.2777L4.38164 12.218L4.36758 12.2074L4.05117 12.566L4.37109 12.2109L4.36758 12.2074L4.05117 12.566L4.37109 12.2109L3.2707 13.4273ZM3.2707 8.51602C3.36211 8.60391 6.29063 11.1809 12 11.1809C17.7094 11.1809 20.6344 8.60391 20.7293 8.51602L19.6359 7.29961L19.9559 7.65469L19.6395 7.29609L19.6359 7.29961L19.9559 7.65469L19.6395 7.29609C19.6395 7.29609 19.6043 7.32773 19.527 7.3875C18.975 7.81289 16.4859 9.53906 12.0035 9.54258C9.39844 9.54258 7.47539 8.95898 6.20273 8.38594C5.56641 8.10117 5.09531 7.81641 4.78945 7.60898C4.63477 7.50703 4.52578 7.42266 4.45547 7.36641L4.38164 7.30664L4.36758 7.29609L4.05117 7.65469L4.37109 7.29961L4.36758 7.29609L4.05117 7.65469L4.37109 7.29961L3.2707 8.51602Z" fill="#68737D"/>
</svg>
