<svg width="24" height="24" viewBox="0 0 24 24" fill="none" xmlns="http://www.w3.org/2000/svg">
<path d="M16 3H8C5.23858 3 3 5.23858 3 8V16C3 18.7614 5.23858 21 8 21H16C18.7614 21 21 18.7614 21 16V8C21 5.23858 18.7614 3 16 3Z" stroke="#49545C" stroke-width="1.5" stroke-linecap="round" stroke-linejoin="round"/>
<path d="M12.4062 15.2097L9.38175 15.9658C9.19558 16.0124 9.00053 16.0099 8.8156 15.9587C8.63066 15.9074 8.46215 15.8092 8.32645 15.6735C8.19076 15.5378 8.09252 15.3693 8.0413 15.1844C7.99007 14.9994 7.98761 14.8044 8.03416 14.6182L8.79216 11.5862C8.95331 10.9416 9.32564 10.3695 9.84979 9.96118C10.3739 9.55282 11.0197 9.33171 11.6842 9.33311H11.692C12.4818 9.33477 13.2387 9.6498 13.7964 10.209C14.3542 10.7682 14.6673 11.5259 14.6669 12.3157C14.6666 12.9811 14.4439 13.6272 14.0344 14.1516C13.6248 14.6759 13.0517 15.0483 12.4062 15.2097V15.2097Z" stroke="#49545C" stroke-width="1.5" stroke-linecap="round" stroke-linejoin="round"/>
<path d="M20.8801 6.92001C19.0011 8.79687 16.8987 10.4358 14.6201 11.8" stroke="#49545C" stroke-width="1.5" stroke-linecap="round" stroke-linejoin="round"/>
<path d="M12.2002 9.37999C13.5665 7.10247 15.2016 4.99738 17.0702 3.10999" stroke="#49545C" stroke-width="1.5" stroke-linecap="round" stroke-linejoin="round"/>
</svg>
