<svg width="24" height="24" viewBox="0 0 24 24" fill="none" xmlns="http://www.w3.org/2000/svg">
<path d="M18 10L15 7" stroke="#68737D" stroke-width="1.5" stroke-linecap="round" stroke-linejoin="round"/>
<path d="M6 20H15" stroke="#68737D" stroke-width="1.5" stroke-linecap="round" stroke-linejoin="round"/>
<path d="M16.0174 5.68275L9.87375 11.8262C9.53712 12.1628 9.31876 12.5996 9.25146 13.0708L9.01095 14.7549C8.98726 14.9208 9.00212 15.09 9.05437 15.2492C9.10662 15.4085 9.19487 15.5535 9.31225 15.6731C9.42964 15.7928 9.57301 15.8837 9.73124 15.939C9.88948 15.9943 10.0583 16.0123 10.2247 15.9918L11.8503 15.791C12.3369 15.7309 12.7894 15.5101 13.1362 15.1634L19.3163 8.98528C19.533 8.76863 19.705 8.51141 19.8223 8.22831C19.9396 7.94521 20 7.64178 20 7.33534C20 7.0289 19.9397 6.72546 19.8224 6.44235C19.7052 6.15923 19.5333 5.90198 19.3166 5.6853L19.314 5.68275C19.0976 5.46629 18.8406 5.29459 18.5578 5.17744C18.2749 5.06029 17.9718 5 17.6657 5C17.3596 5 17.0564 5.06029 16.7736 5.17744C16.4908 5.29459 16.2338 5.46629 16.0174 5.68275Z" stroke="#68737D" stroke-width="1.5" stroke-linecap="round" stroke-linejoin="round"/>
</svg>


