<svg width="24" height="24" viewBox="0 0 24 24" fill="none" xmlns="http://www.w3.org/2000/svg">
<path d="M11 18H6C5.20435 18 4.44129 17.6839 3.87868 17.1213C3.31607 16.5587 3 15.7956 3 15V7C3 6.20435 3.31607 5.44129 3.87868 4.87868C4.44129 4.31607 5.20435 4 6 4H18C18.7956 4 19.5587 4.31607 20.1213 4.87868C20.6839 5.44129 21 6.20435 21 7V11" stroke="#68737D" stroke-width="1.5" stroke-linecap="round" stroke-linejoin="round"/>
<path d="M20.9612 6.61505L13.5335 10.9539C13.0743 11.2221 12.5521 11.3634 12.0204 11.3634C11.4886 11.3634 10.9664 11.2221 10.5072 10.9539L3.04108 6.59265" stroke="#68737D" stroke-width="1.5" stroke-linecap="round" stroke-linejoin="round"/>
<path d="M18 13C18.7911 13 19.5645 13.2346 20.2223 13.6741C20.8801 14.1136 21.3928 14.7384 21.6955 15.4693C21.9983 16.2002 22.0775 17.0044 21.9231 17.7804C21.7688 18.5563 21.3878 19.269 20.8284 19.8284C20.269 20.3878 19.5563 20.7688 18.7804 20.9231C18.0044 21.0775 17.2002 20.9983 16.4693 20.6955C15.7384 20.3928 15.1136 19.8801 14.6741 19.2223C14.2346 18.5645 14 17.7911 14 17C14 15.9391 14.4214 14.9217 15.1716 14.1716C15.9217 13.4214 16.9391 13 18 13Z" stroke="#68737D" stroke-width="1.5" stroke-linecap="round" stroke-linejoin="round"/>
<path d="M19.25 16.4142L17.6883 17.9758L16.75 17.0383" stroke="#68737D" stroke-width="1.5" stroke-linecap="round" stroke-linejoin="round"/>
</svg>
