<svg width="24" height="24" viewBox="0 0 24 24" fill="none" xmlns="http://www.w3.org/2000/svg">
<path d="M14.1218 9.87999C15.2928 11.051 15.2928 12.952 14.1218 14.125C12.9508 15.296 11.0498 15.296 9.87679 14.125C8.70579 12.954 8.70579 11.053 9.87679 9.87999C11.0498 8.70699 12.9498 8.70699 14.1218 9.87999Z" stroke="#49545C" stroke-width="1.5" stroke-linecap="round" stroke-linejoin="round"/>
<path d="M3 12C3 11.341 3.152 10.689 3.446 10.088C4.961 6.991 8.309 5 12 5C15.691 5 19.039 6.991 20.554 10.088C20.848 10.689 21 11.341 21 12C21 12.659 20.848 13.311 20.554 13.912C19.039 17.009 15.691 19 12 19C8.309 19 4.961 17.009 3.446 13.912C3.152 13.311 3 12.659 3 12V12Z" stroke="#49545C" stroke-width="1.5" stroke-linecap="round" stroke-linejoin="round"/>
</svg>
