<svg width="24" height="24" viewBox="0 0 24 24" fill="none" xmlns="http://www.w3.org/2000/svg">
<path d="M12 21C10.22 21 8.47991 20.4722 6.99987 19.4832C5.51983 18.4943 4.36628 17.0887 3.68509 15.4442C3.0039 13.7996 2.82567 11.99 3.17294 10.2442C3.5202 8.49836 4.37737 6.89472 5.63604 5.63604C6.89472 4.37737 8.49836 3.5202 10.2442 3.17294C11.99 2.82567 13.7996 3.0039 15.4442 3.68509C17.0887 4.36628 18.4943 5.51983 19.4832 6.99987C20.4722 8.47991 21 10.22 21 12" stroke="#49545C" stroke-width="1.5" stroke-linecap="round" stroke-linejoin="round"/>
<path d="M3.51318 9H20.3812" stroke="#49545C" stroke-width="1.5" stroke-linecap="round" stroke-linejoin="round"/>
<path d="M3.51416 15H12.0002" stroke="#49545C" stroke-width="1.5" stroke-linecap="round" stroke-linejoin="round"/>
<path d="M16 12C16.0076 9.20625 15.2587 6.46255 13.833 4.05999C13.6476 3.73787 13.3806 3.47031 13.0589 3.28426C12.7372 3.09821 12.3721 3.00024 12.0005 3.00024C11.6288 3.00024 11.2638 3.09821 10.9421 3.28426C10.6203 3.47031 10.3533 3.73787 10.168 4.05999C8.74895 6.4656 8.00049 9.20753 8.00049 12.0005C8.00049 14.7935 8.74895 17.5354 10.168 19.941C10.3542 20.2625 10.6214 20.5296 10.9431 20.7156C11.2647 20.9015 11.6295 21 12.001 21.001" stroke="#49545C" stroke-width="1.5" stroke-linecap="round" stroke-linejoin="round"/>
<path d="M18 22C20.2091 22 22 20.2091 22 18C22 15.7909 20.2091 14 18 14C15.7909 14 14 15.7909 14 18C14 20.2091 15.7909 22 18 22Z" stroke="#49545C" stroke-width="1.5" stroke-linecap="round" stroke-linejoin="round"/>
<path d="M19.2439 17.379L17.6879 18.935L16.7549 18.001" stroke="#49545C" stroke-width="1.5" stroke-linecap="round" stroke-linejoin="round"/>
</svg>
