<svg width="32" height="32" viewBox="0 0 32 32" fill="none" xmlns="http://www.w3.org/2000/svg">
<g clip-path="url(#clip0_1047_932)">
<path fill-rule="evenodd" clip-rule="evenodd" d="M21.5415 13.4875C21.8583 14.1855 22.0476 14.9555 22.0785 15.7688C22.2062 19.1261 19.588 21.9513 16.2307 22.0789C12.8734 22.2066 10.0483 19.5885 9.92062 16.2312C9.79295 12.8739 12.4111 10.0487 15.7684 9.92106C16.935 9.8767 18.0373 10.1639 18.9846 10.6984L17.9264 11.8403C17.2896 11.5447 16.5751 11.3915 15.8254 11.42C13.2959 11.5162 11.3233 13.6447 11.4195 16.1742C11.5157 18.7036 13.6442 20.6762 16.1737 20.58C18.7032 20.4838 20.6758 18.3553 20.5796 15.8258C20.565 15.442 20.5036 15.071 20.4011 14.7181L21.5415 13.4875Z" fill="#68737D"/>
<path fill-rule="evenodd" clip-rule="evenodd" d="M20.7229 7.27771C19.3189 6.51595 17.7103 6.08331 16.0007 6.08331C10.5238 6.08331 6.08398 10.5232 6.08398 16C6.08398 21.4768 10.5238 25.9166 16.0007 25.9166C21.4775 25.9166 25.9173 21.4768 25.9173 16C25.9173 14.4669 25.5694 13.015 24.9482 11.719L26.0639 10.6034C26.9274 12.2104 27.4173 14.048 27.4173 16C27.4173 22.3052 22.3059 27.4166 16.0007 27.4166C9.6954 27.4166 4.58398 22.3052 4.58398 16C4.58398 9.69473 9.6954 4.58331 16.0007 4.58331C18.1274 4.58331 20.1183 5.16484 21.8231 6.17755L20.7229 7.27771Z" fill="#68737D"/>
<path d="M26.9756 8.47472L24.1932 8.1157L23.8342 5.33331L20.8274 8.34009V10.3596L19.4362 11.7508L17.8655 13.3215L16.7436 14.3304C15.7114 13.9265 14.5446 14.4202 14.1407 15.4524C13.7368 16.4845 14.2305 17.6513 15.2626 18.0552C16.2948 18.4591 17.4616 17.9655 17.8655 16.9333C18.045 16.4397 18.045 15.9011 17.8655 15.4524L18.9874 14.4434L21.3211 12.1098L21.9493 11.4815H23.9688L26.9756 8.47472Z" fill="#68737D"/>
</g>
<defs>
<clipPath id="clip0_1047_932">
<rect width="32" height="32" fill="white"/>
</clipPath>
</defs>
</svg>
