<svg width="32" height="32" viewBox="0 0 32 32" fill="none" xmlns="http://www.w3.org/2000/svg">
<path d="M26 14H24V16H26C26.7954 16.0009 27.5579 16.3172 28.1204 16.8796C28.6828 17.4421 28.9991 18.2046 29 19V23H31V19C30.9985 17.6744 30.4712 16.4035 29.5338 15.4662C28.5965 14.5288 27.3256 14.0015 26 14ZM24 4C24.5933 4 25.1734 4.17595 25.6667 4.50559C26.1601 4.83524 26.5446 5.30377 26.7716 5.85195C26.9987 6.40013 27.0581 7.00333 26.9424 7.58527C26.8266 8.16721 26.5409 8.70176 26.1213 9.12132C25.7018 9.54088 25.1672 9.8266 24.5853 9.94236C24.0033 10.0581 23.4001 9.9987 22.8519 9.77164C22.3038 9.54458 21.8352 9.16006 21.5056 8.66671C21.1759 8.17336 21 7.59334 21 7C21 6.20435 21.3161 5.44129 21.8787 4.87868C22.4413 4.31607 23.2044 4 24 4ZM24 2C23.0111 2 22.0444 2.29324 21.2221 2.84265C20.3999 3.39206 19.759 4.17295 19.3806 5.08658C19.0022 6.00021 18.9031 7.00555 19.0961 7.97545C19.289 8.94536 19.7652 9.83627 20.4645 10.5355C21.1637 11.2348 22.0546 11.711 23.0245 11.9039C23.9945 12.0969 24.9998 11.9978 25.9134 11.6194C26.827 11.241 27.6079 10.6001 28.1573 9.77785C28.7068 8.95561 29 7.98891 29 7C29 5.67392 28.4732 4.40215 27.5355 3.46447C26.5979 2.52678 25.3261 2 24 2ZM23 30H21V28C20.9991 27.2046 20.6828 26.4421 20.1204 25.8796C19.5579 25.3172 18.7954 25.0009 18 25H14C13.2046 25.0009 12.4421 25.3172 11.8796 25.8796C11.3172 26.4421 11.0009 27.2046 11 28V30H9V28C9.00156 26.6744 9.52885 25.4035 10.4662 24.4662C11.4035 23.5288 12.6744 23.0016 14 23H18C19.3256 23.0016 20.5965 23.5288 21.5338 24.4662C22.4712 25.4035 22.9984 26.6744 23 28V30ZM16 13C16.5933 13 17.1734 13.1759 17.6667 13.5056C18.1601 13.8352 18.5446 14.3038 18.7716 14.8519C18.9987 15.4001 19.0581 16.0033 18.9424 16.5853C18.8266 17.1672 18.5409 17.7018 18.1213 18.1213C17.7018 18.5409 17.1672 18.8266 16.5853 18.9424C16.0033 19.0581 15.4001 18.9987 14.8519 18.7716C14.3038 18.5446 13.8352 18.1601 13.5056 17.6667C13.1759 17.1734 13 16.5933 13 16C13 15.2044 13.3161 14.4413 13.8787 13.8787C14.4413 13.3161 15.2044 13 16 13ZM16 11C15.0111 11 14.0444 11.2932 13.2221 11.8427C12.3999 12.3921 11.759 13.173 11.3806 14.0866C11.0022 15.0002 10.9031 16.0055 11.0961 16.9755C11.289 17.9454 11.7652 18.8363 12.4645 19.5355C13.1637 20.2348 14.0546 20.711 15.0245 20.9039C15.9945 21.0969 16.9998 20.9978 17.9134 20.6194C18.827 20.241 19.6079 19.6001 20.1573 18.7779C20.7068 17.9556 21 16.9889 21 16C21 14.6739 20.4732 13.4021 19.5355 12.4645C18.5979 11.5268 17.3261 11 16 11ZM8 14H6C4.6744 14.0016 3.40353 14.5288 2.46619 15.4662C1.52885 16.4035 1.00156 17.6744 1 19V23H3V19C3.00087 18.2046 3.31722 17.4421 3.87964 16.8796C4.44206 16.3172 5.20462 16.0009 6 16H8V14ZM8 4C8.59334 4 9.17336 4.17595 9.66671 4.50559C10.1601 4.83524 10.5446 5.30377 10.7716 5.85195C10.9987 6.40013 11.0581 7.00333 10.9424 7.58527C10.8266 8.16721 10.5409 8.70176 10.1213 9.12132C9.70176 9.54088 9.16721 9.8266 8.58527 9.94236C8.00333 10.0581 7.40013 9.9987 6.85195 9.77164C6.30377 9.54458 5.83524 9.16006 5.50559 8.66671C5.17595 8.17336 5 7.59334 5 7C5 6.20435 5.31607 5.44129 5.87868 4.87868C6.44129 4.31607 7.20435 4 8 4ZM8 2C7.01109 2 6.04439 2.29324 5.22215 2.84265C4.3999 3.39206 3.75904 4.17295 3.3806 5.08658C3.00216 6.00021 2.90315 7.00555 3.09607 7.97545C3.289 8.94536 3.7652 9.83627 4.46447 10.5355C5.16373 11.2348 6.05464 11.711 7.02455 11.9039C7.99445 12.0969 8.99979 11.9978 9.91342 11.6194C10.827 11.241 11.6079 10.6001 12.1573 9.77785C12.7068 8.95561 13 7.98891 13 7C13 5.67392 12.4732 4.40215 11.5355 3.46447C10.5979 2.52678 9.32608 2 8 2Z" fill="#68737D"/>
</svg>
