<svg width="24" height="24" viewBox="0 0 24 24" fill="none" xmlns="http://www.w3.org/2000/svg">
<path d="M20.4238 14.1336C20.4639 14.0576 20.5161 13.9894 20.554 13.912C20.8474 13.3173 21 12.6631 21 12C21 11.3369 20.8474 10.6827 20.554 10.088C19.7424 8.52832 18.5119 7.22589 17.0008 6.32708C15.4897 5.42827 13.7579 4.9687 12 5C11.7752 5 11.5567 5.03 11.3348 5.04462M14.5571 13.5571C14.3237 13.9505 14.0036 14.2854 13.621 14.5362C13.2385 14.787 12.8036 14.947 12.3498 15.004C11.8959 15.0611 11.4351 15.0136 11.0024 14.8653C10.5696 14.717 10.1765 14.4718 9.8531 14.1484C9.52966 13.8249 9.28442 13.4318 9.13612 12.9991C8.98781 12.5664 8.94038 12.1055 8.99743 11.6517C9.05447 11.1978 9.2145 10.763 9.46528 10.3805C9.71606 9.99791 10.051 9.67774 10.4444 9.4444L14.5571 13.5571ZM17.9941 16.9941C16.27 18.3018 14.1639 19.0066 12 19C10.2421 19.0313 8.51026 18.5717 6.99917 17.6729C5.48807 16.7741 4.25759 15.4717 3.44598 13.912C3.1526 13.3173 3 12.6631 3 12C3 11.3369 3.1526 10.6827 3.44598 10.088C4.27389 8.43931 5.59364 7.08861 7.2227 6.22272L17.9941 16.9941Z" stroke="#68737D" stroke-width="1.5" stroke-linecap="round" stroke-linejoin="round"/>
<path d="M21 20L4 3" stroke="#68737D" stroke-width="1.5" stroke-linecap="round" stroke-linejoin="round"/>
</svg>
