<svg width="24" height="24" viewBox="0 0 24 24" fill="none" xmlns="http://www.w3.org/2000/svg">
<path d="M9 9H6C4.343 9 3 7.657 3 6C3 4.343 4.343 3 6 3C7.657 3 9 4.343 9 6V9Z" stroke="#49545C" stroke-width="1.5" stroke-linecap="round" stroke-linejoin="round"/>
<path d="M9 9H15V15H9V9Z" stroke="#49545C" stroke-width="1.5" stroke-linecap="round" stroke-linejoin="round"/>
<path d="M6 21C4.343 21 3 19.657 3 18C3 16.343 4.343 15 6 15H9V18C9 19.657 7.657 21 6 21Z" stroke="#49545C" stroke-width="1.5" stroke-linecap="round" stroke-linejoin="round"/>
<path d="M15 15H18C19.657 15 21 16.343 21 18C21 19.657 19.657 21 18 21C16.343 21 15 19.657 15 18V15Z" stroke="#49545C" stroke-width="1.5" stroke-linecap="round" stroke-linejoin="round"/>
<path d="M18 3C19.657 3 21 4.343 21 6C21 7.657 19.657 9 18 9H15V6C15 4.343 16.343 3 18 3Z" stroke="#49545C" stroke-width="1.5" stroke-linecap="round" stroke-linejoin="round"/>
</svg>
