<svg width="24" height="24" viewBox="0 0 24 24" fill="none" xmlns="http://www.w3.org/2000/svg">
<path d="M11 4H20M11.15 9H20M5.25 9V4L4 5.25M11 14H20M11.15 19H20M4 15C4 14.7348 4.10536 14.4804 4.29289 14.2929C4.48043 14.1054 4.73478 14 5 14H5.61448C5.87234 14 6.12365 14.0811 6.33284 14.2319C6.54202 14.3827 6.69846 14.5955 6.78 14.8401C6.84709 15.0414 6.86091 15.2566 6.82013 15.4648C6.77935 15.673 6.68534 15.8671 6.54727 16.0282L4 19H7M4 9H6.5" stroke="#323232" stroke-width="1.5" stroke-linecap="round" stroke-linejoin="round"/>
</svg>
