<svg width="24" height="24" viewBox="0 0 24 24" fill="none" xmlns="http://www.w3.org/2000/svg">
<path d="M17 21H7C5.895 21 5 20.105 5 19V11C5 9.895 5.895 9 7 9H17C18.105 9 19 9.895 19 11V19C19 20.105 18.105 21 17 21Z" stroke="#49545C" stroke-width="1.5" stroke-miterlimit="10" stroke-linecap="round" stroke-linejoin="round"/>
<path d="M15.9998 9V7C15.9998 4.791 14.2088 3 11.9998 3C10.1298 3 8.57179 4.289 8.13379 6.023" stroke="#49545C" stroke-width="1.5" stroke-linecap="round" stroke-linejoin="round"/>
<path d="M11.997 14.5C11.722 14.5 11.497 14.725 11.5 15C11.5 15.275 11.725 15.5 12 15.5C12.275 15.5 12.5 15.275 12.5 15C12.5 14.725 12.275 14.5 11.997 14.5Z" stroke="#49545C" stroke-width="1.5" stroke-linecap="round" stroke-linejoin="round"/>
</svg>
