<svg width="24" height="24" viewBox="0 0 24 24" fill="none" xmlns="http://www.w3.org/2000/svg">
<path d="M15 4H9C6.23858 4 4 6.23858 4 9V15C4 17.7614 6.23858 20 9 20H15C17.7614 20 20 17.7614 20 15V9C20 6.23858 17.7614 4 15 4Z" stroke="#68737D" stroke-width="1.5" stroke-linecap="round" stroke-linejoin="round"/>
<path d="M9.58398 10.0019C9.58399 9.82496 9.63095 9.65117 9.72008 9.4983C9.80921 9.34542 9.9373 9.21894 10.0913 9.13175C10.2453 9.04457 10.4196 8.9998 10.5966 9.00203C10.7735 9.00426 10.9467 9.05341 11.0985 9.14444L14.4292 11.1429C14.5773 11.2318 14.6998 11.3574 14.7849 11.5077C14.87 11.658 14.9147 11.8277 14.9147 12.0004C14.9147 12.1731 14.87 12.3428 14.7849 12.4931C14.6998 12.6433 14.5773 12.769 14.4292 12.8579L11.0985 14.8564C10.9467 14.9474 10.7735 14.9966 10.5966 14.9988C10.4196 15.001 10.2453 14.9563 10.0913 14.8691C9.9373 14.7819 9.80921 14.6554 9.72008 14.5025C9.63095 14.3497 9.58399 14.1759 9.58398 13.9989V10.0019Z" stroke="#68737D" stroke-width="1.5" stroke-linecap="round" stroke-linejoin="round"/>
</svg>
