<svg width="24" height="24" viewBox="0 0 24 24" fill="none" xmlns="http://www.w3.org/2000/svg">
<path d="M18.239 3H5.761C4.23614 3 3 4.23614 3 5.761V18.239C3 19.7639 4.23614 21 5.761 21H18.239C19.7639 21 21 19.7639 21 18.239V5.761C21 4.23614 19.7639 3 18.239 3Z" stroke="#68737D" stroke-width="1.5" stroke-linecap="round" stroke-linejoin="round"/>
<path d="M15.5 15C15.5 14.7239 15.2761 14.5 15 14.5C14.7239 14.5 14.5 14.7239 14.5 15C14.5 15.2761 14.7239 15.5 15 15.5V15.5C15.2761 15.5 15.5 15.2761 15.5 15M9.5 9C9.5 8.72386 9.27614 8.5 9 8.5C8.72386 8.5 8.5 8.72386 8.5 9C8.5 9.27614 8.72386 9.5 9 9.5V9.5C9.27614 9.5 9.5 9.27614 9.5 9V9ZM15.5 9C15.5 8.72386 15.2761 8.5 15 8.5C14.7239 8.5 14.5 8.72386 14.5 9C14.5 9.27614 14.7239 9.5 15 9.5V9.5C15.2761 9.5 15.5 9.27614 15.5 9V9ZM9.5 15C9.5 14.7239 9.27614 14.5 9 14.5C8.72386 14.5 8.5 14.7239 8.5 15C8.5 15.2761 8.72386 15.5 9 15.5V15.5C9.27614 15.5 9.5 15.2761 9.5 15V15Z" stroke="#68737D" stroke-width="1.5" stroke-linecap="round" stroke-linejoin="round"/>
</svg>
