<svg width="24" height="24" viewBox="0 0 24 24" fill="none" xmlns="http://www.w3.org/2000/svg">
<path d="M18.5 12C18.5 12.0989 18.4707 12.1956 18.4157 12.2778C18.3608 12.36 18.2827 12.4241 18.1913 12.4619C18.1 12.4998 17.9994 12.5097 17.9025 12.4904C17.8055 12.4711 17.7164 12.4235 17.6464 12.3536C17.5765 12.2836 17.5289 12.1945 17.5096 12.0975C17.4903 12.0006 17.5002 11.9 17.5381 11.8087C17.5759 11.7173 17.64 11.6392 17.7222 11.5843C17.8044 11.5293 17.9011 11.5 18 11.5C18.1326 11.5 18.2598 11.5527 18.3536 11.6464C18.4473 11.7402 18.5 11.8674 18.5 12Z" stroke="#49545C" stroke-width="1.5" stroke-linecap="round" stroke-linejoin="round"/>
<path d="M12.5 12C12.5 12.0989 12.4707 12.1956 12.4157 12.2778C12.3608 12.36 12.2827 12.4241 12.1913 12.4619C12.1 12.4998 11.9994 12.5097 11.9025 12.4904C11.8055 12.4711 11.7164 12.4235 11.6464 12.3536C11.5765 12.2836 11.5289 12.1945 11.5096 12.0975C11.4903 12.0006 11.5002 11.9 11.5381 11.8087C11.5759 11.7173 11.64 11.6392 11.7222 11.5843C11.8044 11.5293 11.9011 11.5 12 11.5C12.1326 11.5 12.2598 11.5527 12.3536 11.6464C12.4473 11.7402 12.5 11.8674 12.5 12Z" stroke="#49545C" stroke-width="1.5" stroke-linecap="round" stroke-linejoin="round"/>
<path d="M6.5 12C6.5 12.0989 6.47068 12.1956 6.41574 12.2778C6.36079 12.36 6.28271 12.4241 6.19134 12.4619C6.09998 12.4998 5.99945 12.5097 5.90246 12.4904C5.80546 12.4711 5.71637 12.4235 5.64645 12.3536C5.57652 12.2836 5.5289 12.1945 5.50961 12.0975C5.49031 12.0006 5.50022 11.9 5.53806 11.8087C5.5759 11.7173 5.63999 11.6392 5.72221 11.5843C5.80444 11.5293 5.90111 11.5 6 11.5C6.13261 11.5 6.25979 11.5527 6.35355 11.6464C6.44732 11.7402 6.5 11.8674 6.5 12Z" stroke="#49545C" stroke-width="1.5" stroke-linecap="round" stroke-linejoin="round"/>
</svg>
