<svg width="24" height="24" viewBox="0 0 24 24" fill="none" xmlns="http://www.w3.org/2000/svg">
<path d="M12 17.1468C8.82626 17.1468 6.24396 14.5647 6.24396 11.3907C6.24396 11.0514 6.51905 10.7765 6.85817 10.7765C7.19748 10.7765 7.47238 11.0516 7.47238 11.3907C7.47258 13.8872 9.5035 15.9183 12 15.9183C14.4963 15.9183 16.5274 13.8872 16.5274 11.3909C16.5274 11.0516 16.8023 10.7767 17.1416 10.7767C17.4809 10.7767 17.7558 11.0518 17.7558 11.3909C17.756 14.5647 15.1737 17.1468 12 17.1468Z" fill="#68737D"/>
<path d="M12 14.3692C10.3757 14.3692 9.0437 13.0372 9.0437 11.4129V6.78742C9.0437 5.16318 10.3757 3.83114 12 3.83114C13.6242 3.83114 14.9563 5.16318 14.9563 6.78742V11.4127C14.9563 13.037 13.6242 14.3692 12 14.3692Z" stroke="#68737D" stroke-width="1.5"/>
<path d="M12 20.7629C11.6607 20.7629 11.3858 20.488 11.3858 20.1487V16.6883C11.3858 16.349 11.6609 16.0741 12 16.0741C12.3393 16.0741 12.6142 16.349 12.6142 16.6883V20.1487C12.6142 20.488 12.3393 20.7629 12 20.7629Z" fill="#68737D"/>
<path d="M14.0713 20.9189H9.92863C9.58932 20.9189 9.31442 20.644 9.31442 20.3046C9.31442 19.9653 9.58952 19.6904 9.92863 19.6904H14.0711C14.4105 19.6904 14.6854 19.9653 14.6854 20.3046C14.6854 20.644 14.4107 20.9189 14.0713 20.9189Z" fill="#68737D"/>
</svg>
