<svg width="24" height="24" viewBox="0 0 24 24" fill="none" xmlns="http://www.w3.org/2000/svg">
<path d="M17 2V2C19.7614 2 22 4.23858 22 7C22 9.76142 19.7614 12 17 12C14.2386 12 12 9.76142 12 7V7C12 4.23858 14.2386 2 17 2" stroke="white" stroke-width="1.5" stroke-linecap="round" stroke-linejoin="round"/>
<path d="M20 14.0003V14.3753V14.3753C20 15.9399 18.7316 17.2083 17.167 17.2083H12.445L7.723 20.9863V17.2083H5.833H5.833C4.26838 17.2083 3 15.9399 3 14.3753V6.81933V6.81933C3 5.25471 4.26838 3.98633 5.833 3.98633H10" stroke="white" stroke-width="1.5" stroke-linecap="round" stroke-linejoin="round"/>
<path d="M18.358 6.94449C18.3283 6.94226 18.3023 6.96456 18.3001 6.9943C18.3 6.99636 18.2999 6.99843 18.3 7.00049C18.3 7.03142 18.3251 7.05648 18.356 7.05648C18.3869 7.05648 18.412 7.03141 18.412 7.00048C18.412 6.96955 18.3869 6.94448 18.356 6.94448M18.356 6.94448V6.94448Z" stroke="white" stroke-width="1.5" stroke-linecap="round" stroke-linejoin="round"/>
<path d="M15.642 6.94434C15.6111 6.94544 15.587 6.97139 15.5881 7.0023C15.5892 7.03321 15.6151 7.05737 15.646 7.05626C15.6762 7.05519 15.7 7.03047 15.7 7.00034C15.7 6.96979 15.6756 6.94488 15.645 6.94434" stroke="white" stroke-width="1.5" stroke-linecap="round" stroke-linejoin="round"/>
</svg>
