<svg width="24" height="24" viewBox="0 0 24 24" fill="none" xmlns="http://www.w3.org/2000/svg">
<path d="M21 7V17C21 19.209 19.209 21 17 21H7C4.791 21 3 19.209 3 17V7C3 4.791 4.791 3 7 3H17C19.209 3 21 4.791 21 7Z" stroke="white" stroke-width="1.5" stroke-linecap="round" stroke-linejoin="round"/>
<path d="M21 12.0003H16.309C16.12 12.0003 15.946 12.1073 15.862 12.2763L14.447 15.1053C14.263 15.4743 13.737 15.4743 13.553 15.1053L10.43 8.86127C10.249 8.49927 9.735 8.49127 9.543 8.84727L7.984 11.7373C7.896 11.8993 7.727 12.0003 7.544 12.0003H3" stroke="white" stroke-width="1.5" stroke-linecap="round" stroke-linejoin="round"/>
</svg>
