<svg width="24" height="24" viewBox="0 0 24 24" fill="none" xmlns="http://www.w3.org/2000/svg">
<path d="M19.1863 9.2727C19.1863 9.99647 19.1863 10.7171 19.1863 11.444C19.1863 12.171 19.1863 12.8916 19.2049 13.6153C19.2386 14.218 19.1257 14.8198 18.8765 15.367C18.6184 15.8937 18.1759 16.3019 17.637 16.5104C17.0343 16.7591 16.4873 16.8557 15.9435 16.7401C15.3997 16.6245 14.859 16.2982 14.2625 15.7027C13.2068 14.6416 12.1543 13.5747 11.1049 12.502C10.0555 11.4292 9.00757 10.3592 7.96124 9.29171C7.79717 9.10072 7.61268 8.92913 7.41122 8.78016C7.30188 8.7087 7.17715 8.66559 7.04782 8.65455C6.9185 8.64351 6.7885 8.66488 6.66908 8.71681C6.53476 8.75956 6.41264 8.83511 6.3133 8.93694C6.21396 9.03876 6.14037 9.16379 6.09892 9.30121C6.03142 9.57268 6.00375 9.85289 6.0168 10.1327C6.0168 11.3152 6.02042 12.4993 6.02765 13.685C6.02765 14.8697 6.02765 16.0606 6.0075 17.2389C5.99528 17.5357 6.04547 17.8316 6.15469 18.1068C6.25958 18.3623 6.44947 18.5715 6.69077 18.6976C6.81331 18.7641 6.94926 18.8007 7.08796 18.8046C7.22666 18.8084 7.36435 18.7794 7.49024 18.7198C7.75031 18.5975 7.98613 18.4273 8.1859 18.2177C8.6662 17.7405 9.14392 17.2601 9.61905 16.7765C10.0942 16.2929 10.5616 15.8041 11.0212 15.3099C11.1103 15.2033 11.2191 15.1156 11.3414 15.052C11.4637 14.9884 11.5971 14.9501 11.7339 14.9393C11.9921 14.9406 12.2434 15.0242 12.4528 15.1785C12.6511 15.3115 12.7426 15.5982 12.7364 15.9007C12.7377 16.2033 12.6301 16.4958 12.4342 16.7226C11.8641 17.3118 11.2986 17.9089 10.7299 18.498C10.1613 19.0872 9.57877 19.67 8.98072 20.2291C8.54153 20.6553 7.97762 20.9223 7.37559 20.9893C6.77021 21.0371 6.16299 20.9247 5.61242 20.663C5.10855 20.4603 4.67981 20.1007 4.38688 19.6352C4.11249 19.1508 3.97918 18.5964 4.00264 18.0372C4.01658 16.5769 4.01503 15.1167 4.01348 13.6549C4.01193 12.1931 4.01348 10.7345 4.01348 9.2727C4.00128 8.69191 4.11948 8.11599 4.35899 7.58918C4.61201 7.07012 5.05006 6.66996 5.58298 6.47105C6.13553 6.23868 6.74262 6.17701 7.32911 6.29367C7.9335 6.43863 8.48137 6.76582 8.9017 7.23284C9.96456 8.34146 11.0367 9.44269 12.1182 10.5365C13.1996 11.6304 14.278 12.7263 15.3532 13.8244C15.4998 13.9882 15.6683 14.13 15.8537 14.2457C15.9468 14.3006 16.0506 14.3338 16.1577 14.3431C16.2648 14.3524 16.3726 14.3375 16.4734 14.2995C16.6678 14.2401 16.8443 14.1311 16.9862 13.9828C17.1305 13.8059 17.2026 13.579 17.1877 13.3493C17.1722 12.0142 17.1722 10.6854 17.1722 9.35664C17.1722 8.02788 17.1722 6.69753 17.1722 5.36877C17.1819 5.16803 17.1508 4.9674 17.0808 4.77961C17.0365 4.68434 16.9744 4.59893 16.8978 4.52827C16.8212 4.45761 16.7318 4.40309 16.6345 4.36784C16.4456 4.27647 16.2393 4.22888 16.0303 4.22847C15.8152 4.24378 15.6102 4.32802 15.4446 4.4692C14.8593 4.93907 14.3084 5.45198 13.7961 6.00385C13.2771 6.54549 12.7704 7.10138 12.2282 7.62085C12.0264 7.84331 11.7585 7.99141 11.4659 8.04213C11.3372 8.04946 11.2086 8.02659 11.0899 7.97525C10.9712 7.92392 10.8655 7.84549 10.7811 7.74597C10.6812 7.64671 10.603 7.52692 10.5518 7.39452C10.5005 7.26212 10.4772 7.1201 10.4836 6.97785C10.5039 6.67123 10.6361 6.38357 10.8539 6.17173C11.4024 5.61214 11.9498 5.05254 12.4962 4.49295C13.0426 3.93336 13.5926 3.378 14.1463 2.82685C14.4931 2.4971 14.911 2.25534 15.3661 2.12109C15.8212 1.98683 16.3008 1.96385 16.7662 2.05398C17.2334 2.12126 17.6785 2.29959 18.066 2.57464C18.4535 2.8497 18.7725 3.21381 18.9973 3.63773C19.0662 3.77419 19.1183 3.9189 19.1522 4.06851C19.1853 4.21976 19.2009 4.37443 19.1987 4.52938C19.1925 5.31809 19.1925 6.10996 19.1987 6.905C19.2049 7.70004 19.2008 8.48927 19.1863 9.2727Z" fill="#2F3941"/>
</svg>
