<svg width="26" height="26" viewBox="0 0 26 26" fill="none" xmlns="http://www.w3.org/2000/svg">
<g filter="url(#filter0_d)">
<path d="M10.6857 9.68568C10.8005 9.19071 11.0846 8.75139 11.4889 8.44362C11.8932 8.13584 12.3923 7.97894 12.9 8.00001C13.4631 7.96882 14.0157 8.16159 14.4372 8.53627C14.8587 8.91095 15.115 9.43713 15.15 10C15.15 11.5039 13 12 13 13" stroke="white" stroke-width="1.5" stroke-linecap="round" stroke-linejoin="round"/>
<path d="M5.63148 17.1583C4.33769 15.3116 3.78301 13.047 4.07688 10.8115C4.37075 8.57588 5.49183 6.53162 7.21892 5.08203C8.94602 3.63244 11.1537 2.8828 13.4064 2.981C15.659 3.07921 17.7931 4.01813 19.3875 5.61252C20.9819 7.20692 21.9208 9.34098 22.019 11.5936C22.1172 13.8463 21.3676 16.054 19.918 17.7811C18.4684 19.5082 16.4241 20.6293 14.1885 20.9231C11.953 21.217 9.68844 20.6623 7.84175 19.3685L5.00001 20L5.63148 17.1583Z" stroke="white" stroke-width="1.5" stroke-linecap="round" stroke-linejoin="round"/>
<circle cx="12.75" cy="15.75" r="0.75" fill="white"/>
</g>
<defs>
<filter id="filter0_d" x="-2" y="-2" width="30" height="30" filterUnits="userSpaceOnUse" color-interpolation-filters="sRGB">
<feFlood flood-opacity="0" result="BackgroundImageFix"/>
<feColorMatrix in="SourceAlpha" type="matrix" values="0 0 0 0 0 0 0 0 0 0 0 0 0 0 0 0 0 0 127 0" result="hardAlpha"/>
<feMorphology radius="1" operator="erode" in="SourceAlpha" result="effect1_dropShadow"/>
<feOffset dy="1"/>
<feGaussianBlur stdDeviation="2"/>
<feColorMatrix type="matrix" values="0 0 0 0 0.109804 0 0 0 0 0.188235 0 0 0 0 0.290196 0 0 0 0.12 0"/>
<feBlend mode="normal" in2="BackgroundImageFix" result="effect1_dropShadow"/>
<feBlend mode="normal" in="SourceGraphic" in2="effect1_dropShadow" result="shape"/>
</filter>
</defs>
</svg>
