<svg width="24" height="24" viewBox="0 0 24 24" fill="none" xmlns="http://www.w3.org/2000/svg">
<path d="M12 4C7.03 4 3 7.35868 3 11.4971C3.03694 12.7249 3.39056 13.9223 4.02657 14.9731C4.66258 16.024 5.55939 16.8926 6.63 17.4948C6.41369 18.0826 6.11292 18.6358 5.73714 19.1369C5.63591 19.2847 5.58282 19.4601 5.58511 19.6392C5.58741 19.8184 5.64498 19.9924 5.74996 20.1376C5.85494 20.2827 6.00219 20.3919 6.17159 20.4501C6.34098 20.5084 6.52424 20.5129 6.6963 20.4631C7.89863 20.113 9.03031 19.555 10.04 18.8143C10.6863 18.9354 11.3425 18.9956 12 18.9942C16.97 18.9942 21 15.6355 21 11.4971C21 7.35869 16.97 4 12 4Z" stroke="white" stroke-width="1.5" stroke-linecap="round" stroke-linejoin="round"/>
<path d="M9 10H15" stroke="white" stroke-width="1.5" stroke-linecap="round" stroke-linejoin="round"/>
<path d="M9 13H12" stroke="white" stroke-width="1.5" stroke-linecap="round" stroke-linejoin="round"/>
</svg>
