<svg width="24" height="24" viewBox="0 0 24 24" fill="none" xmlns="http://www.w3.org/2000/svg">
<path d="M17.4999 17.359C18.0028 17.359 18.4852 17.1597 18.8413 16.8046C19.1974 16.4496 19.3983 15.9679 19.3999 15.465C19.3996 15.2012 19.3472 14.9401 19.2458 14.6966C19.1444 14.4531 18.9959 14.232 18.8089 14.046L17.5499 12.786V9.043C17.5498 8.31453 17.4061 7.59323 17.127 6.92033C16.848 6.24742 16.4391 5.63611 15.9236 5.12133C15.4082 4.60655 14.7964 4.19839 14.1231 3.9202C13.4499 3.642 12.7284 3.49921 11.9999 3.5V3.5C10.5302 3.5008 9.12103 4.08511 8.082 5.12451C7.04298 6.16391 6.45918 7.57334 6.45891 9.043V12.783L5.19991 14.043C5.01277 14.229 4.86415 14.45 4.76256 14.6935C4.66098 14.937 4.60842 15.1982 4.60791 15.462V15.462C4.6095 15.9649 4.81038 16.4466 5.16652 16.8016C5.52267 17.1567 6.00504 17.356 6.50791 17.356L17.4999 17.359Z" stroke="#49545C" stroke-width="1.5" stroke-linecap="round" stroke-linejoin="round"/>
<path d="M10.521 20.5H13.478" stroke="#49545C" stroke-width="1.5" stroke-linecap="round" stroke-linejoin="round"/>
</svg>
