<svg width="24" height="24" viewBox="0 0 24 24" fill="none" xmlns="http://www.w3.org/2000/svg">
<path d="M10.131 13.869C8.96099 12.699 8.07899 11.389 7.49299 10.06C7.36999 9.77903 7.44199 9.45003 7.65899 9.23303L8.47799 8.41403C9.14899 7.74303 9.14899 6.79403 8.56299 6.20803L7.38999 5.03503C6.60899 4.25403 5.34299 4.25403 4.56199 5.03503L3.90999 5.68603C3.16899 6.42703 2.85999 7.49603 3.05999 8.55603C3.55399 11.169 5.07199 14.03 7.52099 16.479C9.96999 18.928 12.831 20.446 15.444 20.94C16.504 21.14 17.573 20.831 18.314 20.09L18.965 19.439C19.746 18.658 19.746 17.392 18.965 16.611L17.792 15.438C17.206 14.852 16.256 14.852 15.671 15.438L14.768 16.342C14.551 16.559 14.222 16.632 13.941 16.508C12.612 15.921 11.301 15.038 10.131 13.869Z" stroke="#68737D" stroke-width="1.5" stroke-linecap="round" stroke-linejoin="round"/>
</svg>
