<svg width="24" height="24" viewBox="0 0 24 24" fill="none" xmlns="http://www.w3.org/2000/svg">
<path d="M21 19V14.3135V14.3135C21 14.0373 20.7761 13.8135 20.5 13.8135C20.4224 13.8135 20.3458 13.8316 20.2764 13.8663L19.5119 14.2485V14.2485C19.1753 14.4168 18.8041 14.5045 18.4277 14.5045H18.4243V14.5045C17.0854 14.5045 16 13.4191 16 12.0802C16 12.0802 16 12.0802 16 12.0802V11.9271V11.9271C16 10.5882 17.0854 9.50276 18.4243 9.50276C18.4267 9.50276 18.4291 9.50276 18.4315 9.50277V9.50277C18.8054 9.50388 19.1741 9.59148 19.5085 9.7587L20.4211 10.215V10.215C20.6187 10.3138 20.859 10.2337 20.9578 10.0361C20.9855 9.98057 21 9.91933 21 9.85725V5C21 3.89543 20.1046 3 19 3H14.3135V3C14.0373 3 13.8135 3.22386 13.8135 3.5C13.8135 3.57763 13.8316 3.65418 13.8663 3.72361L14.2485 4.48812V4.48812C14.4168 4.82475 14.5045 5.19594 14.5045 5.5723V5.57571V5.57571C14.5045 6.91461 13.4191 8 12.0802 8C12.0802 8 12.0802 8 12.0802 8H11.9271V8C10.5882 8 9.50276 6.9146 9.50276 5.5757C9.50276 5.5733 9.50277 5.57089 9.50277 5.56849V5.56851C9.50388 5.19458 9.59147 4.82597 9.75869 4.49151L10.215 3.57887V3.57887C10.3138 3.38128 10.2337 3.14101 10.0361 3.04222C9.98057 3.01446 9.91934 3 9.85725 3H5H5C3.89543 3 3 3.89543 3 5V9.68652V9.68652C3 9.96266 3.22386 10.1865 3.5 10.1865C3.57763 10.1865 3.65418 10.1684 3.72361 10.1337L4.48812 9.75148V9.75148C4.82475 9.58317 5.19594 9.49554 5.5723 9.49554H5.57571V9.49554C6.91461 9.49554 8 10.5809 8 11.9198C8 11.9198 8 11.9198 8 11.9198V12.0729V12.0729C8 13.4118 6.9146 14.4972 5.5757 14.4972C5.5733 14.4972 5.57089 14.4972 5.56849 14.4972H5.56849C5.19456 14.4961 4.82595 14.4085 4.49149 14.2413L3.57889 13.785V13.785C3.3813 13.6862 3.14103 13.7663 3.04223 13.9639C3.01446 14.0194 3 14.0807 3 14.1428V19V19C3 20.1046 3.89543 21 5 21H9.68652V21C9.96266 21 10.1865 20.7761 10.1865 20.5C10.1865 20.4224 10.1684 20.3458 10.1337 20.2764L9.75148 19.5119V19.5119C9.58316 19.1753 9.49554 18.8041 9.49554 18.4277V18.4243V18.4243C9.49554 17.0854 10.5809 16 11.9198 16C11.9198 16 11.9198 16 11.9198 16H12.073V16C13.4119 16 14.4972 17.0854 14.4972 18.4243C14.4972 18.4267 14.4972 18.4291 14.4972 18.4315V18.4315C14.4961 18.8055 14.4085 19.1741 14.2413 19.5085L13.785 20.4212V20.4212C13.6862 20.6188 13.7663 20.859 13.9639 20.9578C14.0195 20.9855 14.0807 21 14.1428 21H19V21C20.1046 21 21 20.1046 21 19V19V19Z" stroke="#68737D" stroke-width="1.5" stroke-linecap="round" stroke-linejoin="round"/>
</svg>
