<svg width="24" height="24" viewBox="0 0 24 24" fill="none" xmlns="http://www.w3.org/2000/svg">
<path d="M7.7328 20.829C7.48434 20.9587 7.20452 21.0162 6.92506 20.9949C6.6456 20.9737 6.37768 20.8746 6.15167 20.7089C5.92566 20.5431 5.7506 20.3174 5.64634 20.0573C5.54208 19.7971 5.5128 19.5129 5.5618 19.237L6.3708 14.6L2.9648 11.336C2.76077 11.1414 2.61571 10.8933 2.54624 10.6201C2.47678 10.3468 2.48573 10.0595 2.57206 9.79116C2.65839 9.52277 2.8186 9.28415 3.03434 9.10265C3.25008 8.92115 3.5126 8.80413 3.7918 8.765L8.5208 8.089L10.6558 3.83C10.7799 3.57959 10.9715 3.36884 11.2089 3.2215C11.4464 3.07415 11.7203 2.99608 11.9998 2.99608C12.2793 2.99608 12.5532 3.07415 12.7906 3.2215C13.0281 3.36884 13.2197 3.57959 13.3438 3.83L15.4788 8.089L20.2078 8.765C20.487 8.80413 20.7495 8.92115 20.9653 9.10265C21.181 9.28415 21.3412 9.52277 21.4275 9.79116C21.5139 10.0595 21.5228 10.3468 21.4533 10.6201C21.3839 10.8933 21.2388 11.1414 21.0348 11.336L17.6288 14.6L18.4378 19.238C18.4868 19.5139 18.4575 19.7981 18.3532 20.0583C18.249 20.3184 18.0739 20.5441 17.8479 20.7099C17.6219 20.8756 17.354 20.9747 17.0745 20.9959C16.7951 21.0172 16.5153 20.9597 16.2668 20.83L11.9998 18.625L7.7328 20.829Z" stroke="#49545C" stroke-width="1.5" stroke-linecap="round" stroke-linejoin="round"/>
</svg>
