<svg width="32" height="32" viewBox="0 0 32 32" fill="none" xmlns="http://www.w3.org/2000/svg">
<path d="M16 22C14.8133 22 13.6533 21.6481 12.6666 20.9888C11.6799 20.3295 10.9109 19.3925 10.4567 18.2961C10.0026 17.1997 9.88378 15.9933 10.1153 14.8295C10.3468 13.6656 10.9182 12.5965 11.7574 11.7574C12.5965 10.9182 13.6656 10.3468 14.8295 10.1153C15.9933 9.88378 17.1997 10.0026 18.2961 10.4567C19.3925 10.9109 20.3295 11.6799 20.9888 12.6666C21.6481 13.6533 22 14.8133 22 16C22.0085 16.7903 21.8591 17.5743 21.5606 18.3061C21.2621 19.0379 20.8205 19.7028 20.2616 20.2616C19.7028 20.8205 19.0379 21.2621 18.3061 21.5606C17.5743 21.8591 16.7903 22.0085 16 22ZM16 12C15.4714 11.988 14.9459 12.0833 14.4552 12.2801C13.9645 12.4768 13.5187 12.771 13.1449 13.1449C12.771 13.5187 12.4768 13.9645 12.2801 14.4552C12.0833 14.9459 11.988 15.4714 12 16C11.988 16.5286 12.0833 17.0541 12.2801 17.5448C12.4768 18.0355 12.771 18.4813 13.1449 18.8551C13.5187 19.229 13.9645 19.5232 14.4552 19.7199C14.9459 19.9167 15.4714 20.012 16 20C16.5286 20.012 17.0541 19.9167 17.5448 19.7199C18.0355 19.5232 18.4813 19.229 18.8551 18.8551C19.229 18.4813 19.5232 18.0355 19.7199 17.5448C19.9167 17.0541 20.012 16.5286 20 16C20.012 15.4714 19.9167 14.9459 19.7199 14.4552C19.5232 13.9645 19.229 13.5187 18.8551 13.1449C18.4813 12.771 18.0355 12.4768 17.5448 12.2801C17.0541 12.0833 16.5286 11.988 16 12Z" fill="#68737D"/>
<path d="M29.303 11.044L26.9424 6.9562C26.7116 6.55549 26.3489 6.24728 25.9162 6.08414C25.4834 5.921 25.0075 5.91303 24.5696 6.0616L22.1355 6.8849C21.7161 6.60239 21.2777 6.34902 20.8235 6.1266L20.3198 3.608C20.2292 3.15453 19.9842 2.74648 19.6266 2.4533C19.2689 2.16012 18.8207 1.99993 18.3583 2H13.6383C13.1759 1.99993 12.7277 2.16012 12.3701 2.4533C12.0124 2.74648 11.7674 3.15453 11.6768 3.608L11.1731 6.1266C10.7139 6.34663 10.2706 6.59837 9.84641 6.88L7.42701 6.0616C6.98908 5.91303 6.51317 5.921 6.08046 6.08414C5.64775 6.24728 5.28505 6.55549 5.05421 6.9562L2.69361 11.044C2.46251 11.4445 2.37725 11.9126 2.45235 12.3689C2.52744 12.8251 2.75824 13.2412 3.10551 13.5465L5.03641 15.2433C5.01931 15.4947 4.99831 15.7447 4.99831 16C4.99831 16.2578 5.00831 16.5127 5.02611 16.7656L3.10551 18.4536C2.75824 18.7589 2.52744 19.175 2.45235 19.6312C2.37725 20.0875 2.46251 20.5556 2.69361 20.9561L5.05421 25.044C5.28505 25.4447 5.64775 25.7529 6.08046 25.9161C6.51317 26.0792 6.98908 26.0872 7.42701 25.9386L9.86111 25.1153C10.2804 25.398 10.7188 25.6514 11.1731 25.8736L11.6768 28.3922C11.7675 28.8456 12.0125 29.2536 12.3701 29.5468C12.7277 29.8399 13.1759 30.0001 13.6383 30H17.9983V28H13.6383L12.9283 24.4492C11.9463 24.0845 11.0346 23.5529 10.2335 22.8779L6.78611 24.044L4.42611 19.9562L7.15141 17.5611C6.96499 16.527 6.96262 15.4681 7.14441 14.4332L4.42581 12.044L6.78691 7.9562L10.2136 9.1153C11.0203 8.4397 11.9388 7.91027 12.9277 7.5509L13.6383 4H18.3583L19.0683 7.5508C20.0503 7.91551 20.962 8.44709 21.7631 9.1221L25.2099 7.9561L27.5699 12.0439L24.7721 14.4961L26.0906 16L28.8906 13.5464C29.2379 13.2412 29.4688 12.8251 29.544 12.3689C29.6192 11.9127 29.534 11.4445 29.303 11.044Z" fill="#68737D"/>
<path d="M23 26.1798L20.41 23.5898L19 24.9998L23 28.9998L30 21.9998L28.59 20.5898L23 26.1798Z" fill="#68737D"/>
</svg>
