<svg width="24" height="24" viewBox="0 0 24 24" fill="none" xmlns="http://www.w3.org/2000/svg">
<path d="M12 3C7.037 3 3 7.037 3 12C3 16.963 7.037 21 12 21C16.963 21 21 16.962 21 12C21 7.038 16.962 3 12 3Z" stroke="#68737D" stroke-width="1.5" stroke-linecap="round" stroke-linejoin="round"/>
<path d="M15.5006 15.688C15.5006 15.688 14.1876 17 12.0006 17C9.81263 17 8.50063 15.688 8.50063 15.688M15.3286 9.5C15.1906 9.5 15.0786 9.612 15.0796 9.75C15.0796 9.888 15.1916 10 15.3296 10C15.4676 10 15.5796 9.888 15.5796 9.75C15.5796 9.612 15.4676 9.5 15.3286 9.5ZM8.63963 9.5C8.50163 9.5 8.38963 9.612 8.39063 9.75C8.39063 9.888 8.50263 10 8.64063 10C8.77863 10 8.89063 9.888 8.89063 9.75C8.89063 9.612 8.77863 9.5 8.63963 9.5Z" stroke="#68737D" stroke-width="1.5" stroke-linecap="round" stroke-linejoin="round"/>
</svg>
