<svg width="32" height="32" viewBox="0 0 32 32" fill="none" xmlns="http://www.w3.org/2000/svg">
<path d="M18.52 30C17.7246 29.9993 16.9621 29.6828 16.4 29.12L2.88 15.61C2.31723 15.0479 2.0007 14.2854 2 13.49V5C2 4.20435 2.31607 3.44129 2.87868 2.87868C3.44129 2.31607 4.20435 2 5 2H13.49C14.2854 2.0007 15.0479 2.31723 15.61 2.88L29.12 16.39C29.3997 16.6687 29.6216 16.9999 29.773 17.3645C29.9244 17.7292 30.0024 18.1202 30.0024 18.515C30.0024 18.9098 29.9244 19.3008 29.773 19.6655C29.6216 20.0301 29.3997 20.3613 29.12 20.64L20.64 29.12C20.0779 29.6828 19.3154 29.9993 18.52 30ZM5 4C4.73478 4 4.48043 4.10536 4.29289 4.29289C4.10536 4.48043 4 4.73478 4 5V13.49C4.00055 13.6223 4.02735 13.7532 4.07885 13.8751C4.13034 13.9969 4.20551 14.1074 4.3 14.2L17.81 27.71C17.9974 27.8962 18.2508 28.0008 18.515 28.0008C18.7792 28.0008 19.0326 27.8962 19.22 27.71L27.71 19.22C27.8962 19.0326 28.0008 18.7792 28.0008 18.515C28.0008 18.2508 27.8962 17.9974 27.71 17.81L14.2 4.3C14.1074 4.20551 13.9969 4.13034 13.8751 4.07885C13.7532 4.02735 13.6223 4.00055 13.49 4H5Z" fill="#68737D"/>
<path d="M10 14C9.20888 14 8.43552 13.7654 7.77772 13.3259C7.11992 12.8864 6.60723 12.2616 6.30448 11.5307C6.00173 10.7998 5.92252 9.99556 6.07686 9.21964C6.2312 8.44372 6.61216 7.73098 7.17157 7.17157C7.73098 6.61216 8.44372 6.2312 9.21964 6.07686C9.99556 5.92252 10.7998 6.00173 11.5307 6.30448C12.2616 6.60723 12.8864 7.11992 13.3259 7.77772C13.7654 8.43552 14 9.20888 14 10C14 11.0609 13.5786 12.0783 12.8284 12.8284C12.0783 13.5786 11.0609 14 10 14ZM10 8C9.60444 8 9.21776 8.1173 8.88886 8.33706C8.55996 8.55683 8.30362 8.86918 8.15224 9.23464C8.00087 9.60009 7.96126 10.0022 8.03843 10.3902C8.1156 10.7781 8.30608 11.1345 8.58579 11.4142C8.86549 11.6939 9.22186 11.8844 9.60982 11.9616C9.99778 12.0387 10.3999 11.9991 10.7654 11.8478C11.1308 11.6964 11.4432 11.44 11.6629 11.1111C11.8827 10.7822 12 10.3956 12 10C12 9.46957 11.7893 8.96086 11.4142 8.58579C11.0391 8.21072 10.5304 8 10 8Z" fill="#68737D"/>
</svg>
