<svg width="32" height="32" viewBox="0 0 32 32" fill="none" xmlns="http://www.w3.org/2000/svg">
<path d="M22 11H26C26.2652 11 26.5196 11.1054 26.7071 11.2929C26.8946 11.4804 27 11.7348 27 12V14H21V12C21 11.7348 21.1054 11.4804 21.2929 11.2929C21.4804 11.1054 21.7348 11 22 11Z" fill="#68737D"/>
<path d="M24 10C25.1046 10 26 9.10457 26 8C26 6.89543 25.1046 6 24 6C22.8954 6 22 6.89543 22 8C22 9.10457 22.8954 10 24 10Z" fill="#68737D"/>
<path d="M30.0002 18H18.0002C17.47 17.9994 16.9616 17.7885 16.5867 17.4135C16.2118 17.0386 16.0008 16.5302 16.0002 16V4C16.0008 3.46973 16.2117 2.96133 16.5866 2.58637C16.9616 2.21141 17.47 2.00053 18.0002 2H30.0002C30.5305 2.00061 31.0388 2.21152 31.4138 2.58646C31.7887 2.9614 31.9996 3.46975 32.0002 4V16C31.9995 16.5302 31.7886 17.0385 31.4137 17.4134C31.0387 17.7883 30.5305 17.9993 30.0002 18ZM18.0002 4V16H30.0012L30.0002 4H18.0002ZM15.0002 30H13.0002V26C13.0075 25.604 12.9349 25.2107 12.7867 24.8434C12.6385 24.4762 12.4178 24.1425 12.1377 23.8625C11.8577 23.5825 11.5241 23.3618 11.1568 23.2136C10.7896 23.0654 10.3962 22.9927 10.0002 23H6.00024C5.60428 22.9927 5.21092 23.0654 4.84366 23.2136C4.4764 23.3618 4.14279 23.5825 3.86276 23.8625C3.58272 24.1425 3.36201 24.4762 3.21382 24.8434C3.06562 25.2107 2.99298 25.604 3.00024 26V30H1.00024V26C0.993746 25.3416 1.11864 24.6885 1.36761 24.0789C1.61659 23.4694 1.98464 22.9156 2.45023 22.45C2.91582 21.9844 3.4696 21.6163 4.07917 21.3674C4.68873 21.1184 5.34183 20.9935 6.00024 21H10.0002C10.6587 20.9935 11.3118 21.1184 11.9213 21.3674C12.5309 21.6163 13.0847 21.9844 13.5503 22.45C14.0158 22.9156 14.3839 23.4694 14.6329 24.0789C14.8818 24.6885 15.0067 25.3416 15.0002 26V30ZM8.00024 11C8.79589 11 9.55895 11.3161 10.1216 11.8787C10.6842 12.4413 11.0002 13.2044 11.0002 14C11.0002 14.7956 10.6842 15.5587 10.1216 16.1213C9.55895 16.6839 8.79589 17 8.00024 17C7.20459 17 6.44153 16.6839 5.87892 16.1213C5.31631 15.5587 5.00024 14.7956 5.00024 14C5.00024 13.2044 5.31631 12.4413 5.87892 11.8787C6.44153 11.3161 7.20459 11 8.00024 11ZM8.00024 9C6.67416 9 5.40239 9.52678 4.46471 10.4645C3.52702 11.4021 3.00024 12.6739 3.00024 14C3.00024 15.3261 3.52702 16.5979 4.46471 17.5355C5.40239 18.4732 6.67416 19 8.00024 19C9.32632 19 10.5981 18.4732 11.5358 17.5355C12.4735 16.5979 13.0002 15.3261 13.0002 14C13.0002 12.6739 12.4735 11.4021 11.5358 10.4645C10.5981 9.52678 9.32632 9 8.00024 9Z" fill="#68737D"/>
</svg>
