<svg width="24" height="24" viewBox="0 0 24 24" fill="none" xmlns="http://www.w3.org/2000/svg">
<path d="M12 6.38467C12 5.49798 10.9315 5.04993 10.2991 5.67141L7.66794 8.25696C7.48093 8.44073 7.22923 8.5437 6.96704 8.5437H4C3.44771 8.5437 3 8.99142 3 9.5437V13.3908C3 13.943 3.44772 14.3908 4 14.3908H6.90071C7.16291 14.3908 7.41462 14.4937 7.60163 14.6775L10.2991 17.3284C10.9315 17.9499 12 17.5019 12 16.6152V6.38467Z" fill="#68737D"/>
<path d="M14 9.35803C14.5651 10.1429 14.8662 11.0612 14.8662 12C14.8662 12.9388 14.5651 13.8571 14 14.642M15.9231 7.60494C16.9526 8.87814 17.508 10.4183 17.508 12C17.508 13.5817 16.9526 15.1219 15.9231 16.3951M17.6837 6C19.1828 7.70116 20 9.81789 20 12C20 14.1821 19.1828 16.2988 17.6837 18" stroke="#68737D" stroke-linecap="round"/>
<path d="M12 10.5C12.3208 10.9456 12.4918 11.467 12.4918 12C12.4918 12.533 12.3208 13.0544 12 13.5" stroke="#68737D" stroke-linecap="round"/>
</svg>
