<svg width="255" height="139" viewBox="0 0 255 139" fill="none" xmlns="http://www.w3.org/2000/svg">
<rect width="255" height="139" rx="18" fill="#F6F6FA"/>
<path d="M142.375 48.25H112.625C109.106 48.2539 106.254 51.1057 106.25 54.625V73.8953V84.375C106.254 87.8943 109.106 90.7461 112.625 90.75H142.375C142.762 90.7495 143.145 90.7033 143.522 90.6333C143.662 90.6076 143.796 90.5688 143.933 90.534C144.158 90.4765 144.38 90.4094 144.597 90.3274C144.755 90.2682 144.91 90.206 145.062 90.1348C145.24 90.0508 145.411 89.9534 145.581 89.8527C145.741 89.7588 145.903 89.6708 146.053 89.5638C146.065 89.5549 146.079 89.5491 146.092 89.5402C146.107 89.5287 146.121 89.5146 146.136 89.5023C146.165 89.4788 146.202 89.4673 146.228 89.4407C146.243 89.4265 146.247 89.4076 146.26 89.393C147.763 88.2268 148.748 86.4241 148.75 84.375V78.1494V54.625C148.746 51.1057 145.894 48.2539 142.375 48.25ZM143.597 88.424C143.2 88.5468 142.79 88.6247 142.375 88.625H112.625C110.279 88.622 108.378 86.721 108.375 84.375V74.3352L116.371 66.3395C117.824 64.891 120.176 64.891 121.629 66.3395L128.865 73.5741C128.869 73.5783 128.87 73.5839 128.874 73.588L143.683 88.3971C143.654 88.4065 143.626 88.4151 143.597 88.424ZM146.625 84.375C146.624 85.4721 146.196 86.4621 145.513 87.2161L131.13 72.8344L133.373 70.5916C134.842 69.1846 137.158 69.1846 138.627 70.5916L146.625 78.5894V84.375ZM146.625 75.5845L140.13 69.0891C137.848 66.8105 134.152 66.8105 131.87 69.0891L129.627 71.3321L123.132 64.837C120.848 62.5585 117.152 62.5585 114.868 64.837L108.375 71.3303V54.625C108.378 52.279 110.279 50.378 112.625 50.375H142.375C144.721 50.378 146.622 52.279 146.625 54.625V75.5845ZM130.688 56.75C128.927 56.75 127.5 58.1771 127.5 59.9375C127.5 61.6979 128.927 63.125 130.688 63.125C132.447 63.1231 133.873 61.6971 133.875 59.9375C133.875 58.1771 132.448 56.75 130.688 56.75ZM130.688 61C130.101 61 129.625 60.5243 129.625 59.9375C129.625 59.3507 130.101 58.875 130.688 58.875C131.274 58.8762 131.749 59.3511 131.75 59.9375C131.75 60.5243 131.274 61 130.688 61Z" fill="#68737D"/>
</svg>
