<svg xmlns="http://www.w3.org/2000/svg" width="70" height="21" fill="none" viewBox="0 0 70 21"><g clip-path="url(#clip0)"><path fill="#212C4F" d="M15.9853 8.64988C15.9853 9.41186 15.9853 10.1705 15.9853 10.9358C15.9853 11.7012 15.9853 12.4598 16.0049 13.2218C16.0403 13.8562 15.9215 14.4898 15.6591 15.0659C15.3874 15.6204 14.9216 16.0502 14.3542 16.2697C13.7196 16.5315 13.1438 16.6332 12.5713 16.5115C11.9988 16.3898 11.4295 16.0463 10.8015 15.4194C9.69015 14.3022 8.58205 13.179 7.47721 12.0496C6.37238 10.9203 5.26917 9.79369 4.1676 8.66989C3.99487 8.46882 3.80064 8.28817 3.58854 8.13133C3.47343 8.0561 3.34211 8.01071 3.20596 7.99909C3.06981 7.98747 2.93294 8.00997 2.80722 8.06463C2.6658 8.10964 2.53724 8.18919 2.43265 8.29639C2.32807 8.40359 2.2506 8.53522 2.20695 8.67989C2.13589 8.9657 2.10676 9.2607 2.1205 9.55526C2.1205 10.8002 2.12431 12.0468 2.13192 13.2951C2.13192 14.5423 2.13192 15.7962 2.11071 17.0367C2.09784 17.3491 2.15069 17.6607 2.26567 17.9504C2.3761 18.2193 2.57602 18.4396 2.83005 18.5723C2.95906 18.6424 3.10219 18.681 3.24821 18.685C3.39424 18.6891 3.5392 18.6585 3.67173 18.5957C3.94553 18.467 4.1938 18.2878 4.40412 18.0671C4.90978 17.5647 5.41271 17.0589 5.91294 16.5498C6.41316 16.0407 6.90522 15.5261 7.38913 15.0059C7.48293 14.8936 7.5975 14.8013 7.72625 14.7343C7.85501 14.6674 7.99543 14.6271 8.13946 14.6157C8.41124 14.617 8.67584 14.705 8.89632 14.8675C9.1051 15.0075 9.20134 15.3093 9.19482 15.6278C9.1962 15.9464 9.083 16.2543 8.87674 16.4931C8.27648 17.1134 7.68111 17.742 7.08247 18.3623C6.48384 18.9825 5.87053 19.5961 5.2409 20.1847C4.77852 20.6334 4.18485 20.9146 3.55102 20.985C2.91368 21.0354 2.2744 20.9171 1.69477 20.6415C1.1643 20.4281 0.712921 20.0495 0.404527 19.5594C0.115656 19.0495 -0.0246927 18.4658 8.29699e-07 17.8771C0.0146812 16.3398 0.0130501 14.8024 0.0114189 13.2635C0.00978776 11.7245 0.0114189 10.1889 0.0114189 8.64988C-0.00142642 8.03843 0.123009 7.4321 0.375166 6.87747C0.641544 6.33101 1.10272 5.90972 1.66378 5.70032C2.2455 5.45567 2.88464 5.39074 3.50209 5.51357C4.1384 5.66618 4.71519 6.01065 5.15771 6.50232C6.27668 7.66947 7.40544 8.82884 8.54399 9.98043C9.68253 11.132 10.8178 12.2858 11.9498 13.4419C12.1042 13.6143 12.2815 13.7636 12.4767 13.8854C12.5747 13.9432 12.684 13.9782 12.7968 13.988C12.9095 13.9978 13.023 13.9821 13.1292 13.9421C13.3339 13.8795 13.5197 13.7647 13.6691 13.6086C13.8209 13.4224 13.8969 13.1836 13.8811 12.9417C13.8648 11.5361 13.8648 10.1372 13.8648 8.73825C13.8648 7.33933 13.8648 5.93875 13.8648 4.53983C13.8751 4.3285 13.8423 4.11728 13.7686 3.91957C13.722 3.81928 13.6566 3.72935 13.576 3.65496C13.4953 3.58057 13.4012 3.52317 13.2988 3.48606C13.0999 3.38987 12.8827 3.33976 12.6627 3.33933C12.4362 3.35546 12.2204 3.44414 12.0461 3.59277C11.4299 4.08745 10.8498 4.62744 10.3105 5.20844C9.76409 5.77868 9.2307 6.36393 8.6598 6.91082C8.44741 7.14502 8.16529 7.30094 7.85727 7.35434C7.72179 7.36206 7.58637 7.33798 7.4614 7.28393C7.33643 7.22988 7.22523 7.14731 7.1363 7.04254C7.03114 6.93804 6.94886 6.81193 6.89488 6.67254C6.84089 6.53314 6.81643 6.38363 6.82312 6.23387C6.84454 5.91106 6.98366 5.60822 7.21297 5.38519C7.79039 4.79605 8.36674 4.20692 8.94199 3.61778C9.51724 3.02865 10.0963 2.44396 10.6792 1.86372C11.0443 1.51656 11.4843 1.26203 11.9634 1.12069C12.4425 0.979349 12.9475 0.955149 13.4375 1.05005C13.9292 1.12087 14.3979 1.30862 14.8059 1.59819C15.2138 1.88777 15.5496 2.2711 15.7863 2.71741C15.8589 2.86107 15.9137 3.01342 15.9494 3.17093C15.9842 3.33016 16.0006 3.493 15.9984 3.65613C15.9918 4.48648 15.9918 5.32016 15.9984 6.15717C16.0049 6.99419 16.0005 7.82509 15.9853 8.64988Z"/></g><path fill="#212C4F" d="M20.17 13V4.072H22.204L22.384 5.584C22.66 5.056 23.056 4.636 23.572 4.324C24.1 4.012 24.718 3.856 25.426 3.856C26.53 3.856 27.388 4.204 28 4.9C28.612 5.596 28.918 6.616 28.918 7.96V13H26.614V8.176C26.614 7.408 26.458 6.82 26.146 6.412C25.834 6.004 25.348 5.8 24.688 5.8C24.04 5.8 23.506 6.028 23.086 6.484C22.678 6.94 22.474 7.576 22.474 8.392V13H20.17ZM35.4592 13.216C34.5592 13.216 33.7612 13.024 33.0652 12.64C32.3692 12.256 31.8232 11.716 31.4272 11.02C31.0312 10.324 30.8332 9.52 30.8332 8.608C30.8332 7.684 31.0252 6.862 31.4092 6.142C31.8052 5.422 32.3452 4.864 33.0292 4.468C33.7252 4.06 34.5412 3.856 35.4772 3.856C36.3532 3.856 37.1272 4.048 37.7992 4.432C38.4712 4.816 38.9932 5.344 39.3652 6.016C39.7492 6.676 39.9412 7.414 39.9412 8.23C39.9412 8.362 39.9352 8.5 39.9232 8.644C39.9232 8.788 39.9172 8.938 39.9052 9.094H33.1192C33.1672 9.79 33.4072 10.336 33.8392 10.732C34.2832 11.128 34.8172 11.326 35.4412 11.326C35.9092 11.326 36.2992 11.224 36.6112 11.02C36.9352 10.804 37.1752 10.528 37.3312 10.192H39.6712C39.5032 10.756 39.2212 11.272 38.8252 11.74C38.4412 12.196 37.9612 12.556 37.3852 12.82C36.8212 13.084 36.1792 13.216 35.4592 13.216ZM35.4772 5.728C34.9132 5.728 34.4152 5.89 33.9832 6.214C33.5512 6.526 33.2752 7.006 33.1552 7.654H37.6012C37.5652 7.066 37.3492 6.598 36.9532 6.25C36.5572 5.902 36.0652 5.728 35.4772 5.728ZM46.217 13.216C45.317 13.216 44.519 13.024 43.823 12.64C43.127 12.256 42.581 11.716 42.185 11.02C41.789 10.324 41.591 9.52 41.591 8.608C41.591 7.684 41.783 6.862 42.167 6.142C42.563 5.422 43.103 4.864 43.787 4.468C44.483 4.06 45.299 3.856 46.235 3.856C47.111 3.856 47.885 4.048 48.557 4.432C49.229 4.816 49.751 5.344 50.123 6.016C50.507 6.676 50.699 7.414 50.699 8.23C50.699 8.362 50.693 8.5 50.681 8.644C50.681 8.788 50.675 8.938 50.663 9.094H43.877C43.925 9.79 44.165 10.336 44.597 10.732C45.041 11.128 45.575 11.326 46.199 11.326C46.667 11.326 47.057 11.224 47.369 11.02C47.693 10.804 47.933 10.528 48.089 10.192H50.429C50.261 10.756 49.979 11.272 49.583 11.74C49.199 12.196 48.719 12.556 48.143 12.82C47.579 13.084 46.937 13.216 46.217 13.216ZM46.235 5.728C45.671 5.728 45.173 5.89 44.741 6.214C44.309 6.526 44.033 7.006 43.913 7.654H48.359C48.323 7.066 48.107 6.598 47.711 6.25C47.315 5.902 46.823 5.728 46.235 5.728ZM56.4566 13C55.5206 13 54.7706 12.772 54.2066 12.316C53.6426 11.86 53.3606 11.05 53.3606 9.886V5.998H51.8306V4.072H53.3606L53.6306 1.678H55.6646V4.072H58.0766V5.998H55.6646V9.904C55.6646 10.336 55.7546 10.636 55.9346 10.804C56.1266 10.96 56.4506 11.038 56.9066 11.038H58.0226V13H56.4566ZM64.1103 13.216C63.2463 13.216 62.4663 13.018 61.7703 12.622C61.0863 12.226 60.5403 11.68 60.1323 10.984C59.7363 10.276 59.5383 9.46 59.5383 8.536C59.5383 7.612 59.7423 6.802 60.1503 6.106C60.5583 5.398 61.1043 4.846 61.7883 4.45C62.4843 4.054 63.2643 3.856 64.1283 3.856C64.9803 3.856 65.7483 4.054 66.4323 4.45C67.1283 4.846 67.6743 5.398 68.0703 6.106C68.4783 6.802 68.6823 7.612 68.6823 8.536C68.6823 9.46 68.4783 10.276 68.0703 10.984C67.6743 11.68 67.1283 12.226 66.4323 12.622C65.7363 13.018 64.9623 13.216 64.1103 13.216ZM64.1103 11.218C64.7103 11.218 65.2323 10.996 65.6763 10.552C66.1203 10.096 66.3423 9.424 66.3423 8.536C66.3423 7.648 66.1203 6.982 65.6763 6.538C65.2323 6.082 64.7163 5.854 64.1283 5.854C63.5163 5.854 62.9883 6.082 62.5443 6.538C62.1123 6.982 61.8963 7.648 61.8963 8.536C61.8963 9.424 62.1123 10.096 62.5443 10.552C62.9883 10.996 63.5103 11.218 64.1103 11.218Z"/><defs><clipPath id="clip0"><rect width="16" height="20" y="1" fill="#fff"/></clipPath></defs></svg>