<svg xmlns="http://www.w3.org/2000/svg" width="22" height="26" fill="none" viewBox="0 0 22 26"><path fill="#000" d="M14.5421 4.8C15.0147 4.25535 15.375 3.62271 15.6024 2.93842C15.8298 2.25413 15.9197 1.53166 15.8671 0.8125C14.4164 0.929609 13.0696 1.61195 12.1171 2.7125C11.661 3.23997 11.3154 3.8536 11.1006 4.51706C10.8859 5.18051 10.8065 5.88031 10.8671 6.575C11.5748 6.5809 12.2744 6.42387 12.9116 6.11607C13.5489 5.80828 14.1068 5.35797 14.5421 4.8ZM17.6921 14.1C17.7005 13.1422 17.9528 12.2023 18.4252 11.369C18.8976 10.5357 19.5746 9.83657 20.3921 9.3375C19.8762 8.59405 19.1941 7.98104 18.3999 7.54709C17.6058 7.11314 16.7215 6.87019 15.8171 6.8375C13.8671 6.6375 12.0671 7.975 11.0296 7.975C9.99214 7.975 8.52964 6.8625 6.90464 6.8875C5.8423 6.9225 4.80716 7.23223 3.9002 7.78648C2.99323 8.34074 2.2454 9.1206 1.72964 10.05C-0.470362 13.875 1.16714 19.5625 3.36714 22.65C4.36714 24.1625 5.61714 25.875 7.26714 25.8125C8.91714 25.75 9.45464 24.7875 11.3671 24.7875C13.2796 24.7875 13.8671 25.8125 15.4921 25.775C17.1171 25.7375 18.2671 24.225 19.3171 22.7125C20.0609 21.6144 20.642 20.4145 21.0421 19.15C20.0515 18.7275 19.2063 18.0241 18.6109 17.1266C18.0156 16.2292 17.6962 15.177 17.6921 14.1Z"/></svg>