<svg xmlns="http://www.w3.org/2000/svg" width="12" height="22" fill="none" viewBox="0 0 12 22"><path fill="#2F3941" d="M12 16.1163V6.90698C12 6.48233 11.6504 6.13953 11.2174 6.13953C10.7843 6.13953 10.4348 6.48233 10.4348 6.90698V16.1163C10.4348 18.5158 8.44696 20.4651 6 20.4651C3.55304 20.4651 1.56522 18.5158 1.56522 16.1163V4.34884C1.56522 2.7986 2.85391 1.53488 4.43478 1.53488C6.01565 1.53488 7.30435 2.7986 7.30435 4.34884V15.3488C7.30435 16.0549 6.72 16.6279 6 16.6279C5.28 16.6279 4.69565 16.0549 4.69565 15.3488V5.37209C4.69565 4.94744 4.34609 4.60465 3.91304 4.60465C3.48 4.60465 3.13043 4.94744 3.13043 5.37209V15.3488C3.13043 16.8991 4.41913 18.1628 6 18.1628C7.58087 18.1628 8.86957 16.8991 8.86957 15.3488V4.34884C8.86957 1.9493 6.88174 0 4.43478 0C1.98783 0 0 1.9493 0 4.34884V16.1163C0 19.36 2.69217 22 6 22C9.30783 22 12 19.36 12 16.1163Z"/></svg>