<svg width="15" height="15" viewBox="0 0 15 15" fill="none" xmlns="http://www.w3.org/2000/svg">
<path fill-rule="evenodd" clip-rule="evenodd" d="M7.93335 0.93407C7.93335 0.651193 8.16266 0.421875 8.44554 0.421875H13.9089C14.1918 0.421875 14.4211 0.651193 14.4211 0.93407V6.39749C14.4211 6.68036 14.1918 6.90968 13.9089 6.90968C13.6261 6.90968 13.3968 6.68036 13.3968 6.39749V1.44627H8.44554C8.16266 1.44627 7.93335 1.21695 7.93335 0.93407Z" fill="#87929D"/>
<path fill-rule="evenodd" clip-rule="evenodd" d="M14.2711 0.571893C14.4711 0.771918 14.4711 1.09622 14.2711 1.29625L1.29551 14.2719C1.09549 14.4719 0.771185 14.4719 0.571161 14.2719C0.371136 14.0718 0.371136 13.7475 0.571161 13.5475L13.5468 0.571893C13.7468 0.371869 14.0711 0.371869 14.2711 0.571893Z" fill="#87929D"/>
<path fill-rule="evenodd" clip-rule="evenodd" d="M0.933337 7.93396C1.21621 7.93396 1.44553 8.16328 1.44553 8.44615V13.3974H6.39674C6.67962 13.3974 6.90894 13.6267 6.90894 13.9096C6.90894 14.1924 6.67962 14.4218 6.39674 14.4218H0.933337C0.65046 14.4218 0.421143 14.1924 0.421143 13.9096V8.44615C0.421143 8.16328 0.65046 7.93396 0.933337 7.93396Z" fill="#87929D"/>
</svg>
