<svg xmlns="http://www.w3.org/2000/svg" width="20" height="20" fill="none" viewBox="0 0 20 20"><path stroke="#fff" stroke-linecap="round" stroke-linejoin="round" stroke-width="1.5" d="M9.17432 9.37415H10.1327V12.9158"/><path stroke="#fff" stroke-linecap="round" stroke-linejoin="round" stroke-width="1.5" d="M9.1665 12.9155H11.091"/><path stroke="#fff" stroke-linecap="round" stroke-linejoin="round" stroke-width="1.5" d="M10.0832 6.87154C10.0832 6.91275 10.071 6.95302 10.0481 6.98729C10.0252 7.02155 9.99263 7.04825 9.95456 7.06402C9.9165 7.07978 9.87461 7.08391 9.83419 7.07587C9.79378 7.06783 9.75666 7.04799 9.72752 7.01886C9.69839 6.98972 9.67855 6.9526 9.67051 6.91218C9.66247 6.87177 9.66659 6.82988 9.68236 6.79182C9.69813 6.75375 9.72483 6.72121 9.75909 6.69832C9.79335 6.67543 9.83363 6.66321 9.87484 6.66321"/><path stroke="#fff" stroke-linecap="round" stroke-linejoin="round" stroke-width="1.5" d="M9.875 6.66321C9.93025 6.66321 9.98324 6.68516 10.0223 6.72423C10.0614 6.7633 10.0833 6.81629 10.0833 6.87154"/><path stroke="#fff" stroke-linecap="round" stroke-linejoin="round" stroke-width="1.5" d="M13.3333 2.4989H6.66667C4.36548 2.4989 2.5 4.36438 2.5 6.66557V13.3322C2.5 15.6334 4.36548 17.4989 6.66667 17.4989H13.3333C15.6345 17.4989 17.5 15.6334 17.5 13.3322V6.66557C17.5 4.36438 15.6345 2.4989 13.3333 2.4989Z"/></svg>