<svg width="15" height="15" viewBox="0 0 15 15" fill="none" xmlns="http://www.w3.org/2000/svg">
<path fill-rule="evenodd" clip-rule="evenodd" d="M1.21802 8.93594C1.21802 8.63854 1.45909 8.39746 1.75648 8.39746H6.06416C6.36154 8.39746 6.60262 8.63854 6.60262 8.93594V13.2437C6.60262 13.5411 6.36154 13.7822 6.06416 13.7822C5.76677 13.7822 5.5257 13.5411 5.5257 13.2437V9.47441H1.75648C1.45909 9.47441 1.21802 9.23333 1.21802 8.93594Z" fill="#87929D"/>
<path fill-rule="evenodd" clip-rule="evenodd" d="M8.93592 1.21777C9.2333 1.21777 9.47438 1.45886 9.47438 1.75625V5.52557H13.2436C13.541 5.52557 13.7821 5.76666 13.7821 6.06405C13.7821 6.36144 13.541 6.60252 13.2436 6.60252H8.93592C8.63854 6.60252 8.39746 6.36144 8.39746 6.06405V1.75625C8.39746 1.45886 8.63854 1.21777 8.93592 1.21777Z" fill="#87929D"/>
<path fill-rule="evenodd" clip-rule="evenodd" d="M14.3423 0.657716C14.5526 0.868003 14.5526 1.20895 14.3423 1.41923L9.31667 6.445C9.10639 6.65529 8.76545 6.65529 8.55517 6.445C8.34489 6.23471 8.34489 5.89377 8.55517 5.68348L13.5808 0.657716C13.7911 0.447428 14.132 0.447428 14.3423 0.657716Z" fill="#87929D"/>
<path fill-rule="evenodd" clip-rule="evenodd" d="M6.44483 8.55518C6.65512 8.76546 6.65512 9.10641 6.44483 9.3167L1.41921 14.3425C1.20893 14.5527 0.867993 14.5527 0.657711 14.3425C0.44743 14.1322 0.44743 13.7912 0.657711 13.5809L5.68334 8.55518C5.89362 8.34489 6.23455 8.34489 6.44483 8.55518Z" fill="#87929D"/>
</svg>
